<svg id="图层_1" data-name="图层 1" xmlns="http://www.w3.org/2000/svg" viewBox="0 0 450.67 451.36"><defs><style>.cls-1{fill:#e4007f;}</style></defs><path class="cls-1" d="M176.87,450.19l-2.36,1.07-.88,4.66-8.8-11.25a15.27,15.27,0,0,1,.68-2.74c1.51.11,3.41.06,4.4.95a89.54,89.54,0,0,1,6.86,7.42Z" transform="translate(-68.99 -189.7)"/><path class="cls-1" d="M424.36,386.35c-.76,2.94-3,3.4-5.56,1-2.19-2.07-4.17-4.36-5.74-6,.62-2.18,1-3.81,1.58-5.36.21-.55.92-.91,1.4-1.36a4.14,4.14,0,0,0,.34.48,23.14,23.14,0,0,0,8,10.83A2.19,2.19,0,0,1,424.36,386.35Z" transform="translate(-68.99 -189.7)"/><path class="cls-1" d="M453.86,575.51l-9.22-5.36-.64,1,2.24,1.92-.79,1-10.63-8.56.78-1.14C443.67,564.6,447.87,571.73,453.86,575.51Z" transform="translate(-68.99 -189.7)"/><path class="cls-1" d="M207.26,624.11l2-13.87L208,610c-.38,1.79-.77,3.59-1.15,5.39l-1.33-.42c1.67-5.07,3.34-10.14,5-15C213,608.39,209.81,616.16,207.26,624.11Z" transform="translate(-68.99 -189.7)"/><path class="cls-1" d="M293.87,641.06l-3.45-13-1.35.27c.3,1.84.6,3.67.91,5.51-3.07-4.7-2.09-9.93-2.1-14.8C294,625,292.58,633.38,293.87,641.06Z" transform="translate(-68.99 -189.7)"/><path class="cls-1" d="M69,414.5l12.87-3.57-.35-1.39-5.85,1.36c4.86-3.26,10.26-2.35,15.28-2.36C84.86,414.31,76.66,413.39,69,414.5Z" transform="translate(-68.99 -189.7)"/><path class="cls-1" d="M107.55,330.06c-8.11,4.21-14.88-.74-22.16-2.16L99.56,330l.28-1.34-5.76-1.15.36-1.26Z" transform="translate(-68.99 -189.7)"/><path class="cls-1" d="M456.52,271.11c-1.24.53-2.83.73-3.68,1.63-3.37,3.54-6.46,7.35-9.77,10.95-.82.9-2.38,2.17-3.12,1.91-3.73-1.29-4.95,1.78-7,3.48-.22.19-.62.15-1.25.27l6.06-7.67c1.09,2.56,2.51,2.67,4.58.37,3.46-3.82,6.86-7.69,10.34-11.49a10.22,10.22,0,0,1,2.05-1.38Z" transform="translate(-68.99 -189.7)"/><path class="cls-1" d="M379,229.53c-3.86-9,1.37-15.89,2.59-23.37q-.9,7.09-1.81,14.17l1.4.21c.4-1.82.79-3.64,1.19-5.46l1.09.37Z" transform="translate(-68.99 -189.7)"/><path class="cls-1" d="M498.47,422.15c6.14-6.7,14.19-4.49,21.19-6.19l-12.45,3.46.16,1.08,5.8-.85c0,.37.05.74.07,1.12Z" transform="translate(-68.99 -189.7)"/><path class="cls-1" d="M295.28,189.7c1.19,4.43,2.32,8.62,3.44,12.81l1.06-.12c-.2-1.94-.41-3.89-.61-5.83l1-.07c.39,4.66.78,9.31,1.22,14.59C297.81,206.82,294.25,194,295.28,189.7Z" transform="translate(-68.99 -189.7)"/><path class="cls-1" d="M481.27,499.22c8-3.1,14.74,2,22,3l-13.93-1.75-.18,1.41,5.56,1.09-.27.91C489.94,503.05,485.31,502.48,481.27,499.22Z" transform="translate(-68.99 -189.7)"/><path class="cls-1" d="M172.37,402.28l-3.89-.12-.61-.59c-3.48-2.93-3-7.18-4.42-11.9l5.17,2.22-.12-.13,3.78,10.62Z" transform="translate(-68.99 -189.7)"/><path class="cls-1" d="M107.67,407.35l-11.57,1.1L96,408.1l4.34-1.35c-3.87-3.68-7.88-.92-11.37-1.6s-7.18-.15-10.83-1c1-.07,2-.17,3-.22,5.15-.26,10.29-.55,15.44-.74a6.54,6.54,0,0,1,2.4.61C101.87,405,104.82,406.19,107.67,407.35Z" transform="translate(-68.99 -189.7)"/><path class="cls-1" d="M301.35,219l2.44,1c.41-1.12,1.18-2.24,1.16-3.34-.09-5-.43-10.05-.63-15.07a3.69,3.69,0,0,1,1-2.88,24.69,24.69,0,0,1,.45,2.82c.3,5.25.6,10.51.76,15.77,0,1-.21,2.47-.89,3-4.26,3.35-2.27,7.55-1.83,11.56a1.1,1.1,0,0,1-.6,1.2C302.61,228.42,302,223.79,301.35,219Z" transform="translate(-68.99 -189.7)"/><path class="cls-1" d="M454.68,255.94l-7.48,12.78,3.11-1,1.51,1.51-8.44,5.68C443.46,266.92,450.45,262.24,454.68,255.94Z" transform="translate(-68.99 -189.7)"/><path class="cls-1" d="M237.29,520.31c-1,.81-2,2.18-3.06,2.34-2.39.33-4.87-.07-7.31.05a8.35,8.35,0,0,0-3.46,1c-2,1.1-3.87,2.44-5.8,3.68l-.84-1.42,8.45-4.77-1.31-.87c1.69-.19,4.08-.57,6.48-.67.74,0,1.53.65,2.25,1.07,1.64,1,3.27,2.09,4.66-.33Z" transform="translate(-68.99 -189.7)"/><path class="cls-1" d="M493.15,338.56l2.3-.31.24.62-9.8,4.34c3.22-8.52,11.54-9.29,17.09-13.59l-10.32,8C492.82,338,493,338.26,493.15,338.56Z" transform="translate(-68.99 -189.7)"/><path class="cls-1" d="M208.72,206.25c2.92,3.85,5.56,7.32,8.73,11.48l.68-3.95c1.7,3.89,3.12,7.16,4.6,10.54C217.27,220.67,210.13,211.53,208.72,206.25Z" transform="translate(-68.99 -189.7)"/><path class="cls-1" d="M482,423.05l8.24-.89a12.87,12.87,0,0,0-.37,2.49,14.22,14.22,0,0,0,4.19.9c5.63.09,11.25,0,17,.35a30,30,0,0,1-3.25.5c-5.15.3-10.3.57-15.45.76a6.63,6.63,0,0,1-2.66-.65C487,425.32,484.21,424,482,423.05Z" transform="translate(-68.99 -189.7)"/><path class="cls-1" d="M367.29,606.9c7.7,3.86,9.12,11.56,13.09,17.32q-3.31-4.17-6.62-8.35c-.89-1.13-1.2-3.34-3.56-1.84a10,10,0,0,1-2.06-2.74A22.33,22.33,0,0,1,367.29,606.9Z" transform="translate(-68.99 -189.7)"/><path class="cls-1" d="M186.79,356.49c0-3.52.58-7-.17-10.22-.68-2.85-2.84-5.34-4.34-8l.93-.75c1.1,1.39,2.74,2.63,3.2,4.2C187.79,346.49,193.05,351.16,186.79,356.49Z" transform="translate(-68.99 -189.7)"/><path class="cls-1" d="M134.8,574.1l6-11.94-1.57-.54-1.16-1.15,7.27-5.7C145.34,563.69,138.53,568,134.8,574.1Z" transform="translate(-68.99 -189.7)"/><path class="cls-1" d="M176.77,450.3a89.54,89.54,0,0,0-6.86-7.42c-1-.89-2.89-.84-4.4-.95a15.27,15.27,0,0,0-.68,2.74l-3.09-5.75a51,51,0,0,1,5.53,1.36c2.51.89,5.46,1.53,7.21,3.29C176,445.08,176.06,448,176.77,450.3Z" transform="translate(-68.99 -189.7)"/><path class="cls-1" d="M198.86,492.47c-5.72-4.22-12-4.73-18.55-3l-.14-1.28c1.83-.53,3.83-1.82,5.46-1.46C190.25,487.78,196.84,484,198.86,492.47Z" transform="translate(-68.99 -189.7)"/><path class="cls-1" d="M412,430.17l.25-3,1-.11a42.92,42.92,0,0,1-1.92-4.35,21.67,21.67,0,0,1-.57-3.62c.65-.07,1.59-.44,1.91-.14,1.09,1,3,2.9,2.76,3.27-1.75,2.74.87,3.87,1.69,5.62l.06-.1a21,21,0,0,1-1.41,2.65,14.87,14.87,0,0,1-1.87,1.85Z" transform="translate(-68.99 -189.7)"/><path class="cls-1" d="M263.57,300.66c-1.73,1.51-1.73,1.51-3.31-.43-1.45,1.8-2.81,3.66-4.38,5.32a2.7,2.7,0,0,1-2.23.51,1.89,1.89,0,0,1-.93-1.64c.41-1.31,1.05-3.49,1.8-3.57,2.37-.26,3.47-1.74,4.68-3.32l-.11-.07a13.92,13.92,0,0,1,3.33-.17c.72.12,1.32.89,2,1.37Z" transform="translate(-68.99 -189.7)"/><path class="cls-1" d="M282.2,536.46c-1.89.87-3.71,2.18-5.7,2.52-5.29.92-6.85,6-10.37,8.92l-.77-.6a103.6,103.6,0,0,1,5.94-8.62c2.92-3.48,7.09-2.07,10.87-2.15Z" transform="translate(-68.99 -189.7)"/><path class="cls-1" d="M102.23,488.51c-2.13,4.69-4.43,6.56-10.77,8.37l4.89-4.64-.68-.83-5,3.42L90,493.69l11.66-6.26Z" transform="translate(-68.99 -189.7)"/><path class="cls-1" d="M177.11,400.78l-1.76,2.5a53.73,53.73,0,0,1,3.16,5.76c.26.62-.69,1.74-1.08,2.64-1.28-.94-3.76-2.1-3.63-2.76.51-2.56-.59-4.52-1.43-6.64l-.09.1,2.71-4.55Z" transform="translate(-68.99 -189.7)"/><path class="cls-1" d="M153.74,265.58c-5,.12-7.94-1.42-13-6.95,1.58.66,2.71,1.07,3.79,1.6.92.46,1.78,1,2.67,1.57l.71-1.05-4.9-3.27C145.79,257.3,149.5,260,153.74,265.58Z" transform="translate(-68.99 -189.7)"/><path class="cls-1" d="M353.09,308.55c2.71-.35,5.47-.54,8.13-1.12a32.42,32.42,0,0,0,5.64-2.08c1.52-.64,3-1.43,4.46-2.16l.67,1.13c-1.91,1.09-3.78,2.26-5.76,3.23s-4.21,2.4-6.39,2.55-4.46-1.05-6.7-1.64A.44.44,0,0,0,353.09,308.55Z" transform="translate(-68.99 -189.7)"/><path class="cls-1" d="M375.75,236.93c2.25,1.9,3.62,1.34,4.56-1.66.61-1.92,1.12-3.88,1.68-5.82l1.06.33c-1.27,3.82-2.53,7.64-3.84,11.58-2.21-1.47-2.21-1.47-5.83,4.49C374.14,243,374.89,240.17,375.75,236.93Z" transform="translate(-68.99 -189.7)"/><path class="cls-1" d="M157.13,541.31c-2.55,3.12-5.07,6.23-7.6,9.33l-.35-.16,1.55-3.27-.81-1a48.92,48.92,0,0,0-4,3.07,21.55,21.55,0,0,1-3.94,3.54c1.41-2.11,2.75-4.27,4.29-6.28.54-.71,1.73-1.61,2.37-1.45,4,1,5.5-2.25,7.83-4.12C156.5,540.92,156.82,541.16,157.13,541.31Z" transform="translate(-68.99 -189.7)"/><path class="cls-1" d="M284,620.58c-.52-3.7-1.59-6.49-1.09-9,.68-3.41,2.54-6.59,3.73-9.46.34,3.17.76,7.06,1.18,11l-.39.11-1.22-3.69C282.42,612.77,285.57,616.65,284,620.58Z" transform="translate(-68.99 -189.7)"/><path class="cls-1" d="M230.54,239.91l-4.72-8.85,3.7,1.05c-1.55-3.91-2.73-6.89-4.16-10.52,2.09,2.58,3.78,4.47,5.2,6.53a2.6,2.6,0,0,1-.11,2.45C227.86,233.85,230.22,236.77,230.54,239.91Z" transform="translate(-68.99 -189.7)"/><path class="cls-1" d="M470.78,350.7l9.33-5.12.28.31-2.89,2.44c4.22,2.82,6.57-2.24,10.27-1.94-2.31,1.72-4.2,3.22-6.19,4.56-.43.3-1.21.12-1.82.1C476.58,350.94,473.41,350.8,470.78,350.7Z" transform="translate(-68.99 -189.7)"/><path class="cls-1" d="M214.38,588.56l-2.14,7.9-.42-.1c.15-1.38.3-2.76.49-4.61-5.28,1.51-2.93,7.2-6.5,9.49C207.74,596.22,206.48,589.63,214.38,588.56Z" transform="translate(-68.99 -189.7)"/><path class="cls-1" d="M168.62,391.89l-5.17-2.22c1.47,4.72.94,9,4.42,11.9-.58.95-1.17,1.9-1.92,3.11-.49-2.83-1-5.89-1.55-8.92s-1.25-6.05-1.9-9.19C165.48,386.58,167.44,388.72,168.62,391.89Z" transform="translate(-68.99 -189.7)"/><path class="cls-1" d="M101.6,483.63l6.47-4.64c3.19,1,7.06,2.5,10.94-1.1l.17,1.22-8.36,4.59c.48-3.56-1.46-3.3-3.59-2.34-1.83.82-3.55,1.89-5.32,2.84Z" transform="translate(-68.99 -189.7)"/><path class="cls-1" d="M481,504.49a37.81,37.81,0,0,0-4.77-2c-3-.81-6.1-.95-7.24-5-.4-1.43-3.56-2.08-5.3-3.49l8.76,2.4c-1.69,2.54-.73,3.8,2.68,4.9,2.08.67,3.92,2.11,5.86,3.21Z" transform="translate(-68.99 -189.7)"/><path class="cls-1" d="M108.17,326.27l12.49,4.16-1,.71,1.75,3.86-6-1.39v-.54l2.6-.34C116.39,327.71,110.62,330,108.17,326.27Z" transform="translate(-68.99 -189.7)"/><path class="cls-1" d="M421.09,558.71l3.69.95-1.63-4.77,4.89,3.55c-2.3,1.15-2.3,1.15,3,8.82Z" transform="translate(-68.99 -189.7)"/><path class="cls-1" d="M231.7,324.89c-.72-7.25-1.33-13.43-2-19.6a17.17,17.17,0,0,0-2.1,0c.57-1.34,1-2.48,1.54-3.62l1,.09c.34,2.31.67,4.62,1,6.93.68,4.54,1.42,9.08,2,13.63C233.21,322.9,232.46,323.58,231.7,324.89Z" transform="translate(-68.99 -189.7)"/><path class="cls-1" d="M165.68,275.43l-6.84-5.32.28-.42,3.65,1.93c.88-5-4.65-5.15-5.82-8.51C162.54,265.28,165.45,269.23,165.68,275.43Z" transform="translate(-68.99 -189.7)"/><path class="cls-1" d="M360.34,594.24l3.69,6.35-.22.25-2.22-3.14c-3.23,4.67,1.86,6.84,1.54,10.11C358.7,603.14,358.55,602.46,360.34,594.24Z" transform="translate(-68.99 -189.7)"/><path class="cls-1" d="M414,432.21a14.87,14.87,0,0,0,1.87-1.85,21,21,0,0,0,1.41-2.65c.51,1.93,1.09,3.84,1.5,5.79.34,1.61.47,3.27.69,4.91l-1.11.18Z" transform="translate(-68.99 -189.7)"/><path class="cls-1" d="M388.84,553.69a51.59,51.59,0,0,1-5.19,6.18c-.52.48-2.45-.6-4.24-1.11l8.95-5.61Z" transform="translate(-68.99 -189.7)"/><path class="cls-1" d="M264.4,298.66c-.66-.48-1.26-1.25-2-1.37a13.92,13.92,0,0,0-3.33.17c1.57-1.34,3.09-2.76,4.73-4,1.29-1,2.74-1.72,4.11-2.57l.67,1Z" transform="translate(-68.99 -189.7)"/><path class="cls-1" d="M317.11,288.88c.26,4.29-1.73,5.37-9.8,4.72l9.87-4.67Z" transform="translate(-68.99 -189.7)"/><path class="cls-1" d="M335.26,253.11l-9.76-1.73C333.59,248.38,333.8,248.42,335.26,253.11Z" transform="translate(-68.99 -189.7)"/><path class="cls-1" d="M459.65,391c-.65-3.47-1.2-6.44-1.82-9.73C463.6,387.82,463.6,387.82,459.65,391Z" transform="translate(-68.99 -189.7)"/><path class="cls-1" d="M132.41,374.52c-.57,3.49-1.06,6.54-1.57,9.69C127.41,378.41,127.72,375.75,132.41,374.52Z" transform="translate(-68.99 -189.7)"/><path class="cls-1" d="M385.78,275.88c8.83,1.19,8.83,1.19,8.31,5.21Z" transform="translate(-68.99 -189.7)"/><path class="cls-1" d="M200.74,277.31c2.4-1.93,1.52-9,8.23-5.67Z" transform="translate(-68.99 -189.7)"/><path class="cls-1" d="M194.51,549.76l6.85,2.39.16-.46c.06,0,.16.06.16.09a15,15,0,0,0,.23,2.33c.08.31.63.51.77,1C200.33,552.92,194.23,556.57,194.51,549.76Z" transform="translate(-68.99 -189.7)"/><path class="cls-1" d="M320.37,541.4a21.87,21.87,0,0,1,.9-4.4c1.19-2.79,3.47-4.1,7.47-3.9l-8.45,8.23Z" transform="translate(-68.99 -189.7)"/><path class="cls-1" d="M154.47,323.21a57.36,57.36,0,0,1,2.15-7.41c.26-.62,2.09-.57,4.35-1.09l-5.72,8.79Z" transform="translate(-68.99 -189.7)"/><path class="cls-1" d="M129.22,439.61c.75,3.42,1.41,6.46,2.11,9.7C125.56,443.75,125.25,442.53,129.22,439.61Z" transform="translate(-68.99 -189.7)"/><path class="cls-1" d="M318.72,580.3l10.1-1.92C321.78,584.23,321.78,584.23,318.72,580.3Z" transform="translate(-68.99 -189.7)"/><path class="cls-1" d="M270.27,249.83l-9.62,2C265.31,246.5,266.84,246.1,270.27,249.83Z" transform="translate(-68.99 -189.7)"/><path class="cls-1" d="M175,397.83l-2.71,4.55-3.78-10.62C172.43,391.9,172.63,396,175,397.83Z" transform="translate(-68.99 -189.7)"/><path class="cls-1" d="M383.08,246c-.33-1.73-.6-3.11-.87-4.49l.84-.16c.12.89.25,1.78.46,3.3l8.24-8.85.84.71Z" transform="translate(-68.99 -189.7)"/><path class="cls-1" d="M456.45,456c.66-3.44,1.22-6.39,1.85-9.67C461,454.42,461,454.42,456.45,456Z" transform="translate(-68.99 -189.7)"/><path class="cls-1" d="M372.91,228.31l1.86-18,.64.07q-.66,9-1.34,18Z" transform="translate(-68.99 -189.7)"/><path class="cls-1" d="M253.75,577.12l9.69,2C254.9,581.3,254.9,581.3,253.75,577.12Z" transform="translate(-68.99 -189.7)"/><path class="cls-1" d="M434,506.87c-1.6,2.74,1.67,8.81-5.79,8.26Z" transform="translate(-68.99 -189.7)"/><path class="cls-1" d="M294.08,619.1q2.28,8.05,4.55,16.11l-.56.16-5.35-15.84Z" transform="translate(-68.99 -189.7)"/><path class="cls-1" d="M438.14,329.84c-1.5-2-2.67-3.58-4.17-5.57.74-2.3,2.63-.83,3.79-.22C441,325.72,438.59,327.76,438.14,329.84Z" transform="translate(-68.99 -189.7)"/><path class="cls-1" d="M458.78,410.5c-1.54,1.39-2.43,4.93-5.37,1.61l5.84-5.28,1.13.93Z" transform="translate(-68.99 -189.7)"/><path class="cls-1" d="M216.07,602.67l-1.95,17.6-.59-.06,1.31-17.65Z" transform="translate(-68.99 -189.7)"/><path class="cls-1" d="M155.72,507.45c-6-1-6.62-1.89-4.77-6.47Z" transform="translate(-68.99 -189.7)"/><path class="cls-1" d="M317.18,288.93l2.61-3.52-.62-.87-4.48.59,0-.19,8.32-1.77c0,3.18-1.62,5-5.85,5.73C317.11,288.88,317.18,288.93,317.18,288.93Z" transform="translate(-68.99 -189.7)"/><path class="cls-1" d="M291.15,196.22l5,14.39-1.29.42-4.26-14.55Z" transform="translate(-68.99 -189.7)"/><path class="cls-1" d="M76.21,418.15l13.54-4.75.45,1.32-13.64,4.09Z" transform="translate(-68.99 -189.7)"/><path class="cls-1" d="M486.27,433.29a52.9,52.9,0,0,0-5.72-.72q-7.59-.15-15.17.2c6-.31,12.06-.69,18.1-.86.91,0,1.85.9,2.78,1.38Z" transform="translate(-68.99 -189.7)"/><path class="cls-1" d="M385.39,351.62h16.93l-.05-.46c-5.32.79-10.64,1.59-16,2.32C386.15,353.49,385.9,352.69,385.39,351.62Z" transform="translate(-68.99 -189.7)"/><path class="cls-1" d="M312.6,223c-.22,2.4-.58,4.8-.63,7.2-.1,4.83,0,9.66.12,14.48-.3-6.24-.67-12.48-.84-18.73,0-.95.89-1.92,1.36-2.89Z" transform="translate(-68.99 -189.7)"/><path class="cls-1" d="M351.34,610.43v-14.2l.42-.07.84,14.16Z" transform="translate(-68.99 -189.7)"/><path class="cls-1" d="M143.29,569.47l5.3-10.7,1.24.64q-2.91,5.22-5.8,10.44Z" transform="translate(-68.99 -189.7)"/><path class="cls-1" d="M211.19,310.71c.35-1.36.71-2.72,1.07-4.08,3.46,6.51,3.63,7-.69,9.89,2.25-2.78,2.92-5.74.7-9.09l-.69,3.42Z" transform="translate(-68.99 -189.7)"/><path class="cls-1" d="M307.66,533.11l-3.2,3.83c-2.56-2.5.65-4,.71-5.92v.12l3.41-1.36v2.51Z" transform="translate(-68.99 -189.7)"/><path class="cls-1" d="M94.59,334.48l12.37,1-.09,1.14-12.36-1.1Z" transform="translate(-68.99 -189.7)"/><path class="cls-1" d="M493.58,495.86l-11.79-1.13c0-.35.06-.69.1-1l11.83,1.11Z" transform="translate(-68.99 -189.7)"/><path class="cls-1" d="M150.51,270.56,141,265.43l.46-.89,9.57,4.81Z" transform="translate(-68.99 -189.7)"/><path class="cls-1" d="M332.46,267.87c-1.82,2.85-6.71,3-5.38,8.17l-2,1C323.64,275.53,328.34,269.76,332.46,267.87Z" transform="translate(-68.99 -189.7)"/><path class="cls-1" d="M408.24,448.44c.75,1.09,1.53,2.16,2.24,3.28.16.26,0,.68-.71,1.77l-3.89-4.09.11.17c-.14-1.12-.27-2.24-.4-3.36l.68-.29,1.94,2.5Z" transform="translate(-68.99 -189.7)"/><path class="cls-1" d="M180.67,382.13c-.83-1.36-1.65-2.72-2.53-4.18,3.38-.52,4.43.83,5.13,6.32l-1.71-.81Z" transform="translate(-68.99 -189.7)"/><path class="cls-1" d="M329.55,303.41,321.47,306l-.53-1.47,6.31-2.79-2.47,1.42,1,.93,3.85-.61Z" transform="translate(-68.99 -189.7)"/><path class="cls-1" d="M320.29,541.33c1.92,2.83.22,5.06-1.5,7.79-.75-3.14-.69-5.63,1.59-7.71Z" transform="translate(-68.99 -189.7)"/><path class="cls-1" d="M444.48,263.84l-4.42,8-1-.53,4.33-8.08Z" transform="translate(-68.99 -189.7)"/><path class="cls-1" d="M281.07,297.71l4-5c1.16,4.76-2.13,5.83-4.62,7.58.07-.75.13-1.51.19-2.27Z" transform="translate(-68.99 -189.7)"/><path class="cls-1" d="M408.21,448.42l-1.94-2.5-.68.29c.13,1.12.26,2.24.4,3.36q-1.15-3.72-2.3-7.43l1.46-.54Z" transform="translate(-68.99 -189.7)"/><path class="cls-1" d="M412,402l4.68,3.38c-3.74,1-5.55-.18-7.82-4.59l2.09.73Z" transform="translate(-68.99 -189.7)"/><path class="cls-1" d="M498.51,415.53l9.4-2.65.3,1-9.34,2.88Z" transform="translate(-68.99 -189.7)"/><path class="cls-1" d="M393.73,333.33l8,1.29C399,335.89,395.67,337,393.73,333.33Z" transform="translate(-68.99 -189.7)"/><path class="cls-1" d="M367.76,522.1q.45,3.48.89,7l-1.24.25q-.82-3.43-1.63-6.87Z" transform="translate(-68.99 -189.7)"/><path class="cls-1" d="M308.57,532.29v-2.51l-3.41,1.36,6.22-4.64.89.93Z" transform="translate(-68.99 -189.7)"/><path class="cls-1" d="M211.88,218.48q2.94,3.59,5.89,7.16l-.91.81L211,219.38Z" transform="translate(-68.99 -189.7)"/><path class="cls-1" d="M424.34,385.87a23.14,23.14,0,0,1-8-10.83Z" transform="translate(-68.99 -189.7)"/><path class="cls-1" d="M329.59,303.51l-3.85.61-1-.93,2.47-1.42-.14.11,4.65-3.11.9.94Z" transform="translate(-68.99 -189.7)"/><path class="cls-1" d="M266.67,285.19l4-3.46c-.33,2.37-.62,4.49-1,7.28Z" transform="translate(-68.99 -189.7)"/><path class="cls-1" d="M482.38,338.23l7.16-6,.89,1.13L483,338.94Z" transform="translate(-68.99 -189.7)"/><path class="cls-1" d="M463.94,444.45l6.36-.72C467.26,447.5,466.9,447.49,463.94,444.45Z" transform="translate(-68.99 -189.7)"/><path class="cls-1" d="M198.87,564.86l3.46-5.19.7.53-2.34,5.65Z" transform="translate(-68.99 -189.7)"/><path class="cls-1" d="M422,439l5.22,4.3-.69,1q-2.81-1.91-5.62-3.8Z" transform="translate(-68.99 -189.7)"/><path class="cls-1" d="M105.17,493.27l-7.25,5.91-.71-.83,7.13-6.12Z" transform="translate(-68.99 -189.7)"/><path class="cls-1" d="M442.87,506.57l2.44,2.93c-2.85,1.73-4.33.68-5.38-1.77l2.78-.18C442.76,507.22,442.81,506.9,442.87,506.57Z" transform="translate(-68.99 -189.7)"/><path class="cls-1" d="M194.67,496.67l-7.79-.73C190.18,493.61,193.09,493.94,194.67,496.67Z" transform="translate(-68.99 -189.7)"/><path class="cls-1" d="M225,527.16l10.4,1.53-.17,1.07-10.54-2Z" transform="translate(-68.99 -189.7)"/><path class="cls-1" d="M312.61,223.08q1.38-5.42,2.74-10.84l1.47.46q-2.11,5.13-4.23,10.3A.45.45,0,0,1,312.61,223.08Z" transform="translate(-68.99 -189.7)"/><path class="cls-1" d="M368.41,322.74l5.2-.78c-1.28,2.65-6.24,3.75-7.71,2.11-.12-.12.37-.78.57-1.2Z" transform="translate(-68.99 -189.7)"/><path class="cls-1" d="M481,504.49l10,2-.36,1.47a29.78,29.78,0,0,1-3.49-.9c-2.06-.79-4.08-1.72-6.12-2.59Z" transform="translate(-68.99 -189.7)"/><path class="cls-1" d="M195.29,274.94l-1.81-3.34-.78,3.33-1.4-4.48C195.21,270.48,195.3,270.6,195.29,274.94Z" transform="translate(-68.99 -189.7)"/><path class="cls-1" d="M168.24,333.91V320.33h.37v13.58Z" transform="translate(-68.99 -189.7)"/><path class="cls-1" d="M486.26,433.29l11,2.59c-.13.49-.27,1-.41,1.47l-10.58-4.06Z" transform="translate(-68.99 -189.7)"/><path class="cls-1" d="M230.62,268.56c-3.45.33-6.3-.44-8-4.66l5,.61-2.85.8-.3,1.15,6.12,2.11Z" transform="translate(-68.99 -189.7)"/><path class="cls-1" d="M371.94,603.74l5.3,6.39-1,.79q-2.61-3.2-5.21-6.41Z" transform="translate(-68.99 -189.7)"/><path class="cls-1" d="M108,472.81H99.11l0-1,8.87.59Z" transform="translate(-68.99 -189.7)"/><path class="cls-1" d="M498.29,342.91l-7.5,2.76-.25-.54,7.17-3.52Z" transform="translate(-68.99 -189.7)"/><path class="cls-1" d="M383.52,226.36l2.92-7.64,1.15.45c-1,2.49-2.09,5-3.14,7.46Z" transform="translate(-68.99 -189.7)"/><path class="cls-1" d="M221.86,210.66l2.73,7-.84.36-3.11-6.83Z" transform="translate(-68.99 -189.7)"/><path class="cls-1" d="M411.74,495.87c-.33,3.25-.67,6.5-1.06,10.35V495.86Z" transform="translate(-68.99 -189.7)"/><path class="cls-1" d="M445.59,565.12l-6.89-3.83.56-1.07,6.83,3.66Z" transform="translate(-68.99 -189.7)"/><path class="cls-1" d="M237.8,573l-1.69-2c4.38-1.56,1.18-3.83,2-5.82l1.32,7.11Z" transform="translate(-68.99 -189.7)"/><path class="cls-1" d="M218.32,320.88l2.11-3.35,1.08.38v5.26L220,324.4c-.43-1-.86-2-1.28-3A4.42,4.42,0,0,0,218.32,320.88Z" transform="translate(-68.99 -189.7)"/><path class="cls-1" d="M143.74,320.8c3.39-1.44,4.74,0,5.67,2.54l-2.81-.85-.63,1.17Z" transform="translate(-68.99 -189.7)"/><path class="cls-1" d="M100.15,397.26l-8.45-3.43.43-1.06,8.29,4Z" transform="translate(-68.99 -189.7)"/><path class="cls-1" d="M366.92,619.54l-2.51-6.94.71-.37c1.06,2.19,2.11,4.39,3.17,6.58Z" transform="translate(-68.99 -189.7)"/><path class="cls-1" d="M131.7,397.15l-10.57-2.44.22-.92,10.46,2.84Z" transform="translate(-68.99 -189.7)"/><path class="cls-1" d="M391.81,342.49c-1.7-.09-3.4-.14-5.08-.37a20.73,20.73,0,0,1,0-2.58c-1.27-.46-2.89-1-4.43-1.64a7.82,7.82,0,0,1-2.57-1.73c-.22-.23.23-1.67.61-1.79,1.25-.38,3.07-1,3.83-.45,2.89,2.18,5.44,4.8,8.11,7.26C392.12,341.62,392,342.06,391.81,342.49Z" transform="translate(-68.99 -189.7)"/><path class="cls-1" d="M411,380.21c-.15,0-1.34.63-1.91.26a39.4,39.4,0,0,1-5.46-4.36c-.36-.35-.37-1.81-.05-2a3.4,3.4,0,0,1,2.57-.56,6.67,6.67,0,0,1,3,2.17C410,376.82,410.27,378.28,411,380.21Z" transform="translate(-68.99 -189.7)"/><path class="cls-1" d="M363.51,401c-1.69,1.56-3.25,4.16-5.89,2.59-1.47-.87-2.16-3.06-2.66-5.3,2.59,2.53,5.22,3.88,8.63,2.77C363.61,401.06,363.51,401,363.51,401Z" transform="translate(-68.99 -189.7)"/><path class="cls-1" d="M344.21,376.44l7.9.83c.16,1.66-1.32,3.1-3.41,3.07A4.25,4.25,0,0,1,344.21,376.44Z" transform="translate(-68.99 -189.7)"/><path class="cls-1" d="M333.12,464.86c-.24,2.83-.44,5.28-.7,8.4-.93-1.17-2.7-2.4-2.89-3.84A3.88,3.88,0,0,1,333.12,464.86Z" transform="translate(-68.99 -189.7)"/><path class="cls-1" d="M237.21,375.7c1.56,1,3.64,1.57,4.29,2.88a4.26,4.26,0,0,1-1.68,5.57C239,381.52,238.24,379,237.21,375.7Z" transform="translate(-68.99 -189.7)"/><path class="cls-1" d="M226.66,400.91c1.43.1,3.69-.38,4.47.48,1.24,1.36,1.47,3.62,2.13,5.5l-1.14.57Z" transform="translate(-68.99 -189.7)"/><path class="cls-1" d="M263.21,470.11l-7.92,2.1c.78-1.33,1.35-3.55,2.44-3.85,1.77-.49,3.88.28,5.85.52Z" transform="translate(-68.99 -189.7)"/><path class="cls-1" d="M311.21,475.77l-4,7.54c-.4-1.53-1.52-3.37-1.09-4.71A4.08,4.08,0,0,1,311.21,475.77Z" transform="translate(-68.99 -189.7)"/><path class="cls-1" d="M256.67,357c1.08,1.37,3,2.74,2.87,3.86-.21,1.79-1.81,3.41-2.82,5.1l-.92-.56C256.06,362.89,256.32,360.37,256.67,357Z" transform="translate(-68.99 -189.7)"/><path class="cls-1" d="M308.82,347.15c-.29,1.84,0,4.1-1,5.12-1.36,1.41-3.69,2.24-5.58.38Z" transform="translate(-68.99 -189.7)"/><path class="cls-1" d="M325.85,360.4l8-2.49c-.89,1.48-1.5,3.82-2.73,4.22-1.66.53-3.8-.44-5.73-.77Z" transform="translate(-68.99 -189.7)"/><path class="cls-1" d="M357.12,423.15,362,429c-1.14,0-3.54.66-4.2-.14-1.17-1.38-1.26-3.66-1.81-5.56Z" transform="translate(-68.99 -189.7)"/><path class="cls-1" d="M349.25,446l2.29,8.32c-1.35-.78-3.36-1.25-3.94-2.42C346.63,449.91,347.08,447.66,349.25,446Z" transform="translate(-68.99 -189.7)"/><path class="cls-1" d="M236.58,453c1.12-.89,2.38-2.65,3.79-2.79a4.1,4.1,0,0,1,4.5,3.69Z" transform="translate(-68.99 -189.7)"/><path class="cls-1" d="M286.61,477.74,280.18,483c.17-1.57-.23-3.87.65-4.58,1.39-1.13,3.65-1.19,5.54-1.71Z" transform="translate(-68.99 -189.7)"/><path class="cls-1" d="M233.49,431.89l-6.76-4c1.39-.38,3-1.24,4.5-1.13C232.92,426.85,233.88,429.62,233.49,431.89Z" transform="translate(-68.99 -189.7)"/><path class="cls-1" d="M277.76,354l4.4-6.47c.36,1.59,1.33,3.43.8,4.14-1.12,1.48-3,2.37-4.63,3.5Z" transform="translate(-68.99 -189.7)"/><path class="cls-1" d="M177,428.6l-4.35-3.46c2.79-1.59,4.53-.64,7.62,4.48l-3.39-1.13Z" transform="translate(-68.99 -189.7)"/><path class="cls-1" d="M352.15,517.25l-1.8,6.41c-3.1-2.94-.58-5.36.67-8.62.53,1.17.79,1.76,1.06,2.34Z" transform="translate(-68.99 -189.7)"/><path class="cls-1" d="M395.53,357.7l7.94,1.37C400.91,361.75,398.83,361.49,395.53,357.7Z" transform="translate(-68.99 -189.7)"/><path class="cls-1" d="M192.09,472.82l-6.35-1.93c2.33-2.31,3.46-2.18,8.56.94l-2.34.91Z" transform="translate(-68.99 -189.7)"/><path class="cls-1" d="M223.28,506.83l-8,1.78C216.69,505.14,218.63,504.64,223.28,506.83Z" transform="translate(-68.99 -189.7)"/><path class="cls-1" d="M262.86,528.05l-6.16,3.72c.6-3.83,1.71-4.65,6.92-5.55l-.87,1.93Z" transform="translate(-68.99 -189.7)"/><path class="cls-1" d="M237,315.11c.53-3.43.92-5.93,1.35-8.73C241.14,308.72,240.83,311.08,237,315.11Z" transform="translate(-68.99 -189.7)"/><path class="cls-1" d="M387.82,494c-4.4-1.56-2.69-4.71-3-7.34l1.34-.33Z" transform="translate(-68.99 -189.7)"/><path class="cls-1" d="M202.33,336.05c3.08,2,1.19,5.07,1.62,7.64l-1.15.25-1.68-7.43Z" transform="translate(-68.99 -189.7)"/></svg>