<svg id="图层_1" data-name="图层 1" xmlns="http://www.w3.org/2000/svg" viewBox="0 0 275.22 337.09"><defs><style>.cls-1{fill:none;}.cls-1,.cls-2{stroke:#79171c;stroke-miterlimit:10;}.cls-2{fill:#068e59;}</style></defs><path class="cls-1" d="M423,218.27c-8.64,1.21-7.43,8.55-9,14.27-.7,2.51,3.79-.07,2.29,2.91-2,4-1.86,4.12,2.73,4.49,1.09,1.31.61,2.64.08,4-2.57.51-3.36,3-4.19,4.74-1.54,3.22,1.61,1.87,2.92,2.28.74,0,.83.68,1.21,1.05,0,.35,0,.69,0,1-.88,1.56-.46,3.27-.46,4.9q0,53.44,0,106.89c0,2-.62,3.89-.44,5.88v4c-1,1-1.19,2.33-1.55,3.59,0,1.34,0,2.68,0,4,0,1.89-1.53,3.66-.47,5.65l-.15,3.24c-1.19,1.16-.86,2.82-1.38,4.2,0,1.34,0,2.68,0,4a13.4,13.4,0,0,0-.45,4.71v3.73c-.77,1.28-1.71,2.53-1,4.17l-.15,4.13c-1,.7-.82,2.21-2,2.71-2.05.31-3.77.44-4.25,3.38-.51,3.2,1.13,4.35,3.23,5.62,1,.33.45,1.55,1.18,2,0,1,0,1.91,0,2.87-1.37,1.22-.95,2.86-1,4.39,0,1.19,0,2.37,0,3.55-1.37,1.58-1.38,3.42-1,5.33L408,448c.28,1.73-.66,3.45,0,5.18-.9,3.08-2.89,4.76-6.16,4.81-.85,1.45-1.94,2.44-3.79,1.93-3.49-1.23-6.75-2.56-6.32,3.63.18,2.47-2.67,2.9-4.75,3.37-.66,1.18-1.84,1.88-2.71,2.87l-2.39.18a3.14,3.14,0,0,1-2.9,1.93c-1.1-.17-1.75-2.16-2.91-1.22-1.37,1.11.85,1.29,1,2.13-.67,1.23-1.86,2-2.78,3l-2.31.14c-.65,1.65-2.52,1.74-3.62,2.83l-1.35.15c-.63,1.17-1.79,1.85-2.63,2.83l-2.38.17a3.35,3.35,0,0,1-3,2c-2.49.47-6.1-1.37-6.17,3.86,0,1.36-3.3,3-5.76,3.15a19.47,19.47,0,0,1-2.67,2.85c-2.9,0-4.14,3.85-7.34,3.15-.65,1.16-1.79,1.86-2.64,2.84-4.37,1.46-7.62,5.16-12.24,6.11a26.44,26.44,0,0,1-2.79,2.91L305,516.87a8,8,0,0,1-5.13,1.5q-35.43-.06-70.86,0c-1.16,0-2.35.15-3.35-.64-1.07-1.37-2.14-2.74-2.26-4.59A35.13,35.13,0,0,1,217,501.83a6.42,6.42,0,0,1-2.44-2.77,8.62,8.62,0,0,1-1.54-3.37c-4.26-7.23-9.06-14.15-12.11-22-1.31-.95-2.39-2-1.87-3.85-.25-1,1.37-2.72-1-2.94-2.05-.18-2.37-1.94-3.13-3.31-.77-.94-1.84-1.7-1.85-3.1-2.58-4.35-5.44-8.57-7.63-13.12-1-2.12-4.4-4.29-.88-7.56.8-.76-1.45-2.91-3.66-1.83-1.65.17-1.35-1.32-1.82-2.15l-1.09-2.11c-.59-.85-1.76-1.54-.78-2.82,2.61-1.17,5.07-2.2,5.71-5.67.85-4.63-.61-7-5.34-7.29-5.42-.31-10.78-.68-12.6-7.24-.79-1-1.91-1.8-1.9-3.25q-1.47-2.49-2.93-5c-.83-1.13-1.83-2.15-2.07-3.61-.38-.76-.77-1.51-1.15-2.26a1.49,1.49,0,0,1,0-1.39c-.75-3.47,1.26-7.14-1.15-10.56-2.07-2.95,2.05-6.71-.87-9.76-1.72-4.53-.49-9.24-.82-13.86.83-4,.35-8,.48-12s-.56-8,.46-12c0-.34,0-.69,0-1-1.06-3.24-.3-6.56-.42-9.85,1-5.38,0-10.84.57-16.24.74-3.63.17-7.3.35-10.94.27-4-.57-8,.46-11.92l0-1c-1-3.55-.31-7.17-.44-10.75.91-4.46.16-9,.48-13.46.88-4.23.28-8.5.46-12.75V237.11c0-3.62-.07-7.24.06-10.87.9-4.74.21-9.53.43-14.29a67.68,67.68,0,0,1,.51-11.56c0-2-.07-4,.06-6a10,10,0,0,1,5.2-1.9c2.38.19,4.51-1.33,6.91-1,1.74-.21,3.3-1.37,5.15-1,1.95-.24,3.84-.87,5.81-1,1,0,1.85-.41,2.81-.38,1.68.22,2.85,1.37,4.15,2.3l.39.56c1.77,2.09,3.69,3.31,6.68,2.28,2.67-.91,2.81-.72,1.42-3.42-1.15-2.23,1.11-2.55,1.89-3.7s1.95-1,3.06-1.16a6.87,6.87,0,0,0,4-1c2.75-.65,5.62-.62,8.34-1.45h8.85c5.49,0,11-.09,16.48.06,6.43.92,12.9.15,19.35.47,5.59,1,11.23.25,16.83.47,6.29.1,12.58-.21,18.86.16,11.7.77,23.41.07,35.1.36,5.65.95,11.34.27,17,.48h17.94c5.92,0,11.85-.07,17.77,0,6.12,1.06,12.31,0,18.45.62,5.87.73,11.77.15,17.65.34,2.75.23,5.56-.52,8.26.49l1,1.82c-1.23,1-.9,2.61-1.38,3.91-.22,2.72-.17,5.49-1.15,8.1-.05,1.26,0,2.52-.07,3.78-.55,1.4-.32,3-.88,4.37-.14,1.21,0,2.43-.12,3.65C422.75,214.45,423,216.37,423,218.27Z" transform="translate(-152.43 -182.35)"/><path class="cls-2" d="M418,366.91q0-54.48.1-109c0-1.6-1.19-3.62.89-4.92l-.15,113.74C418.57,367.18,418.29,367.24,418,366.91Z" transform="translate(-152.43 -182.35)"/><path class="cls-2" d="M224.81,516c.81,2.41,2.84,1.88,4.6,1.88,23.28,0,46.57,0,69.85.06a29.16,29.16,0,0,0,5.72-1c-.91,2.06-2.75,2-4.58,2-24,0-48-.06-72.08.07a4.64,4.64,0,0,1-4.86-3.12A.9.9,0,0,1,224.81,516Z" transform="translate(-152.43 -182.35)"/><path class="cls-2" d="M329.08,185.83A302,302,0,0,1,294,185l.74-.45c5.38-.37,10.8.44,16.17-.45,6.76.14,13.55-1,20.25.71C330.77,185.75,329.64,185.22,329.08,185.83Z" transform="translate(-152.43 -182.35)"/><path class="cls-2" d="M258.1,184.82c-6.41-.16-12.88,1.09-19.23-.7.06-.64.69-.7,1.06-1,6.75.12,13.54-1,20.24.71C259.77,184.75,258.67,184.22,258.1,184.82Z" transform="translate(-152.43 -182.35)"/><path class="cls-2" d="M400.05,186.83c-6-.09-12.11.89-18.1-.58-.3-.24-.41-.49-.32-.75s.18-.39.28-.39c6.41.15,12.87-1.07,19.22.68C401.06,186.44,400.43,186.5,400.05,186.83Z" transform="translate(-152.43 -182.35)"/><path class="cls-2" d="M157.91,211.87c-.1,4.76.92,9.57-.7,14.26-1-.38-.44-1.48-1-2.06a136,136,0,0,1,.65-22.29C158.49,205,156.7,208.6,157.91,211.87Z" transform="translate(-152.43 -182.35)"/><path class="cls-2" d="M155.81,309.8c.12,5.44.94,10.91-.61,16.29-1.21-.74-.23-2.18-1-3.06,0-4.76-.92-9.56.67-14.25C155.57,308.78,155.53,309.43,155.81,309.8Z" transform="translate(-152.43 -182.35)"/><path class="cls-2" d="M154.85,360.79q0,7,0,14.06a4,4,0,0,0-.69.23c-1-.39-.43-1.5-1-2.07,0-4.77-.92-9.59.67-14.28C154.83,359.11,154.3,360.21,154.85,360.79Z" transform="translate(-152.43 -182.35)"/><path class="cls-2" d="M156.85,261.82c-.06,4.38,1.08,8.84-.76,13.12-.24.44-.53.46-.85.08,0-5.09-1-10.22.64-15.24C156.82,260.17,156.3,261.24,156.85,261.82Z" transform="translate(-152.43 -182.35)"/><path class="cls-2" d="M294,185l-18.94-.22c-.36-.15-.49-.3-.37-.45a.47.47,0,0,1,.35-.25l18.9.07-.08.5Z" transform="translate(-152.43 -182.35)"/><path class="cls-2" d="M419.91,232c-3.72-3.53-.74-6.18,1.17-9,1.35,1.08-.3,2.84.89,4-.33.7-.65,1.4-1,2.09A2.47,2.47,0,0,1,419.91,232Z" transform="translate(-152.43 -182.35)"/><path class="cls-2" d="M400.05,186.83l1.08-1,16.87.26c.31.16.41.33.31.51s-.19.26-.3.26Z" transform="translate(-152.43 -182.35)"/><path class="cls-2" d="M381.91,185.11c0,.38,0,.76,0,1.14l-18-.39c-.3-.16-.41-.33-.31-.5s.2-.26.3-.26Z" transform="translate(-152.43 -182.35)"/><path class="cls-2" d="M363.94,185.1a2.42,2.42,0,0,1,0,.76l-17.9-.08c-.37-.15-.49-.3-.38-.47s.23-.25.35-.25Z" transform="translate(-152.43 -182.35)"/><path class="cls-2" d="M239.93,183.1l-1.06,1L222,183.87c-.31-.17-.41-.34-.31-.51s.2-.26.3-.26Z" transform="translate(-152.43 -182.35)"/><path class="cls-2" d="M346,185.06a1.75,1.75,0,0,1,0,.72l-17,.05,2.08-1C336.12,184.84,341.08,184.31,346,185.06Z" transform="translate(-152.43 -182.35)"/><path class="cls-2" d="M293.86,184.64a.67.67,0,0,1,.08-.5l17,0C305.27,185.57,299.55,184.53,293.86,184.64Z" transform="translate(-152.43 -182.35)"/><path class="cls-2" d="M275,184.07a1.05,1.05,0,0,1,0,.7l-17,0,2.07-1Z" transform="translate(-152.43 -182.35)"/><path class="cls-2" d="M154.21,323l1,3.06-.15,9.87C152.79,331.78,154.48,327.34,154.21,323Z" transform="translate(-152.43 -182.35)"/><path class="cls-2" d="M156.85,261.82c-.33-.68-.65-1.36-1-2,.08-3.62.17-7.25.25-10.87.25-.42.5-.43.77,0Q156.87,255.37,156.85,261.82Z" transform="translate(-152.43 -182.35)"/><path class="cls-2" d="M156.22,224.07l1,2.06c-.09,3.61-.19,7.23-.28,10.85-.24.41-.5.43-.75,0Z" transform="translate(-152.43 -182.35)"/><path class="cls-2" d="M201.08,186c-.72,1.16-2.13.54-3.06,1.16l-6.29.69A12.09,12.09,0,0,1,201.08,186Z" transform="translate(-152.43 -182.35)"/><path class="cls-2" d="M156,287q-.07,5.92-.13,11.87c-.24.5-.48.5-.74,0C155.46,294.93,153.94,290.84,156,287Z" transform="translate(-152.43 -182.35)"/><path class="cls-2" d="M157.91,211.87c-1.69-3.22.06-6.8-1-10.09l.24-1.85c.25-.41.51-.44.77,0Z" transform="translate(-152.43 -182.35)"/><path class="cls-2" d="M155,337q-.09,5.94-.17,11.86c-.21.5-.44.53-.69,0C154.43,344.91,152.93,340.82,155,337Z" transform="translate(-152.43 -182.35)"/><path class="cls-2" d="M156.18,237a6.26,6.26,0,0,1,.75,0l0,11.92-.39,0-.38,0Z" transform="translate(-152.43 -182.35)"/><path class="cls-2" d="M153.19,373c.34.69.68,1.38,1,2.07,0,3.29.49,6.59-.28,9.86-.22.42-.45.41-.7,0Z" transform="translate(-152.43 -182.35)"/><path class="cls-2" d="M154.15,348.87a1.09,1.09,0,0,1,.69,0c0,4,0,8,0,11.94l-1-2.06C153.89,355.44,153.38,352.14,154.15,348.87Z" transform="translate(-152.43 -182.35)"/><path class="cls-2" d="M183.61,189.78l-2.59,0c-.32-.18-.43-.36-.32-.54s.22-.27.32-.27c2.47-1.53,5.39-1.18,8.07-1.71,1.3-.25,0,1-.12,1.54a2.55,2.55,0,0,1-1.79,1.12C186,190.22,184.83,189.33,183.61,189.78Z" transform="translate(-152.43 -182.35)"/><path class="cls-2" d="M419.91,232,421,229c2.1,2.24.19,4.33,0,7C419.28,234.61,420.36,233.09,419.91,232Z" transform="translate(-152.43 -182.35)"/><path class="cls-2" d="M155.24,275a1.31,1.31,0,0,0,.85-.08c0,3.68,0,7.36,0,11C153.9,282.46,155.41,278.68,155.24,275Z" transform="translate(-152.43 -182.35)"/><path class="cls-2" d="M424.15,201l1-8.91c.91-.22,1.38,0,1,1-.09,2.67.1,5.39-1.16,7.89C424.67,201.4,424.41,201.42,424.15,201Z" transform="translate(-152.43 -182.35)"/><path class="cls-2" d="M155.14,298.89h.74q0,5.46-.07,10.92l-.93-1C155,305.48,155.06,302.19,155.14,298.89Z" transform="translate(-152.43 -182.35)"/><path class="cls-2" d="M408,453.15c-2.53-1.74-.3-3.46,0-5.18C410,449.71,408.81,451.43,408,453.15Z" transform="translate(-152.43 -182.35)"/><path class="cls-2" d="M416,388c-2.35-1.68-1.94-3.37,0-5.07.28-.45.57-.44.88-.05C417.22,384.68,416.49,386.31,416,388Z" transform="translate(-152.43 -182.35)"/><path class="cls-2" d="M213.05,183.78c-2.51,1.4-5.22,1.35-8,1.15,2.39-1.73,5.29-1.21,8-1.79Z" transform="translate(-152.43 -182.35)"/><path class="cls-2" d="M409,446.05c-1.73-2.17-2.17-4.09,1-5.33A9.38,9.38,0,0,1,409,446.05Z" transform="translate(-152.43 -182.35)"/><path class="cls-2" d="M411,429.91c-1.3-.14-.93-1.26-1.18-2,.62-1.24.11-2.94,1.84-4.05C412.28,426.1,411.39,428,411,429.91Z" transform="translate(-152.43 -182.35)"/><path class="cls-2" d="M423,218.27c-2.06-1.76-1-3.58-.09-5.4.65,0,.62.69,1,1A5.1,5.1,0,0,1,423,218.27Z" transform="translate(-152.43 -182.35)"/><path class="cls-2" d="M170,191.79l-7,1v-.66c2.3-.54,4.51-1.58,7-1.13.34.18.45.35.34.52S170.14,191.79,170,191.79Z" transform="translate(-152.43 -182.35)"/><path class="cls-2" d="M181,189q0,.4,0,.81l-6,1c-.33-.17-.44-.35-.33-.53s.22-.26.33-.26A11.56,11.56,0,0,1,181,189Z" transform="translate(-152.43 -182.35)"/><path class="cls-2" d="M213.05,183.78c0-.21,0-.42,0-.64l8.93,0a4,4,0,0,1,0,.77Z" transform="translate(-152.43 -182.35)"/><path class="cls-2" d="M418,186.82a3.3,3.3,0,0,1,0-.77c2.65.43,5.55-1.33,8,.92Z" transform="translate(-152.43 -182.35)"/><path class="cls-2" d="M410,437.17c-1.64-1.92-1.73-3.49,1-4.39A6.48,6.48,0,0,1,410,437.17Z" transform="translate(-152.43 -182.35)"/><path class="cls-2" d="M398,459.89l3.79-1.93c.78,2.46-1.48,2.52-2.7,3.18S398,460.65,398,459.89Z" transform="translate(-152.43 -182.35)"/><path class="cls-2" d="M368.29,478.74c.09-2.37,2.53-1.75,3.62-2.83C372.54,479.2,369.91,478.32,368.29,478.74Z" transform="translate(-152.43 -182.35)"/><path class="cls-2" d="M422,226.94c-2-.93-.3-2.71-.89-4,.31-.54.52-1.43,1-1.56,1.47-.44.88.85.81,1.36C422.66,224.18,422.28,225.55,422,226.94Z" transform="translate(-152.43 -182.35)"/><path class="cls-2" d="M419,243.92l-.08-4c.6-.51,1.5-2,1.79-.12C421,241.18,421,243.14,419,243.92Z" transform="translate(-152.43 -182.35)"/><path class="cls-2" d="M414.1,395c0-1.5-1.07-3.53,1.74-3.76,0,1.27.75,2.67-.66,3.69A.63.63,0,0,1,414.1,395Z" transform="translate(-152.43 -182.35)"/><path class="cls-2" d="M414,404.15c-1.63-1.38-1.31-2.81-.12-4.26.29-.43.61-.48,1-.08A4.77,4.77,0,0,1,414,404.15Z" transform="translate(-152.43 -182.35)"/><path class="cls-2" d="M410.82,418.89c.46-1.06-.23-3,2-2.71C412.31,417.19,414.73,420.42,410.82,418.89Z" transform="translate(-152.43 -182.35)"/><path class="cls-2" d="M426.1,193.07l-1-1c-.07-1.5-.66-3.3,1.9-3.26C427,190.29,427.12,191.8,426.1,193.07Z" transform="translate(-152.43 -182.35)"/><path class="cls-2" d="M157.88,199.91l-.77,0c.27-2.3-1.05-4.81.9-6.89.36.2.5.42.41.67s-.19.38-.3.38Z" transform="translate(-152.43 -182.35)"/><path class="cls-2" d="M153.22,385a1.28,1.28,0,0,0,.7,0c.05,2.22.51,4.46-.37,7C152.65,389.41,153.05,387.18,153.22,385Z" transform="translate(-152.43 -182.35)"/><path class="cls-2" d="M418,366.91a.7.7,0,0,1,.84-.14c.26,1.41.49,2.82-.77,3.93C417.23,369.45,416.06,368.21,418,366.91Z" transform="translate(-152.43 -182.35)"/><path class="cls-2" d="M419,252l-1.21-1.05c.37-1.36.11-3,1.56-4.11C420.57,248.77,419.1,250.34,419,252Z" transform="translate(-152.43 -182.35)"/><path class="cls-2" d="M177.16,430.86l.78,2.82c-2.35-.25-2.71-2-2.83-3.85l.61-.08Z" transform="translate(-152.43 -182.35)"/><path class="cls-2" d="M423.1,209a4.84,4.84,0,0,1,.72-4.22c.64.06.69.68,1,1,.23,1.15.38,2.28-.75,3.1C423.78,209.41,423.46,209.43,423.1,209Z" transform="translate(-152.43 -182.35)"/><path class="cls-2" d="M416.18,378c0-1.44-.73-3.28,1.84-3.27-.09,1.13.31,2.41-.94,3.19C416.81,378.33,416.52,378.38,416.18,378Z" transform="translate(-152.43 -182.35)"/><path class="cls-2" d="M156.91,395.17l0,1.39c-1.36.1-2-.66-2.34-1.87-.21-.71.44-1,.68-.89A9.06,9.06,0,0,1,156.91,395.17Z" transform="translate(-152.43 -182.35)"/><path class="cls-2" d="M163,407.41c1.44.61,1.52,2,1.9,3.25C162.68,410.52,162,409.48,163,407.41Z" transform="translate(-152.43 -182.35)"/><path class="cls-2" d="M413,412.05c-1.2-1.75-1.73-3.34,1-4.17A6.53,6.53,0,0,1,413,412.05Z" transform="translate(-152.43 -182.35)"/><path class="cls-2" d="M187,189.12l1.93-.3c.46,1.28,1.82,2.83-.94,3.14C187.25,191.17,186.44,190.39,187,189.12Z" transform="translate(-152.43 -182.35)"/><path class="cls-2" d="M173.44,426.91c-1.31-.4-1.68-1.5-1.94-2.64,0-.1.56-.52.76-.46,1.67.48,1.3,2,1.57,3.2Z" transform="translate(-152.43 -182.35)"/><path class="cls-2" d="M179,435.79l1.82,2.15c.06.61.11,1.23.17,1.84-.36-.19-.88-.29-1-.59C179.46,438.13,178.07,437.28,179,435.79Z" transform="translate(-152.43 -182.35)"/><path class="cls-2" d="M175,190v.79l-5,1V191A7.25,7.25,0,0,1,175,190Z" transform="translate(-152.43 -182.35)"/><path class="cls-2" d="M158.12,194.09,158,193c1.62-.65,3.23-1.36,5.05-.9a2.91,2.91,0,0,1,0,.66Z" transform="translate(-152.43 -182.35)"/><path class="cls-2" d="M193,460.45c1.49.52,1.56,1.88,1.85,3.1C192.85,463.36,192.07,462.42,193,460.45Z" transform="translate(-152.43 -182.35)"/><path class="cls-2" d="M384.24,469.76c-.17-2,1.48-2.23,2.71-2.87C387.82,469.51,385.62,469.25,384.24,469.76Z" transform="translate(-152.43 -182.35)"/><path class="cls-2" d="M199,469.8c.62,1.29,1.25,2.57,1.87,3.85C198.19,473.39,197.46,472.15,199,469.8Z" transform="translate(-152.43 -182.35)"/><path class="cls-2" d="M379,471.87l2.9-1.93C382.24,472.63,381.11,473,379,471.87Z" transform="translate(-152.43 -182.35)"/><path class="cls-2" d="M374.22,475.77c-.15-2,1.59-2.24,2.78-3C377.74,475.33,375.78,475.36,374.22,475.77Z" transform="translate(-152.43 -182.35)"/><path class="cls-2" d="M364.31,481.72c-.2-2,1.4-2.21,2.63-2.83C367.76,481.41,365.75,481.3,364.31,481.72Z" transform="translate(-152.43 -182.35)"/><path class="cls-2" d="M358.9,483.87l3-2C362.13,484.41,361.27,485.3,358.9,483.87Z" transform="translate(-152.43 -182.35)"/><path class="cls-2" d="M344.3,493.73c-.17-1.94,1.49-2.18,2.67-2.85C347.94,493.57,345.62,493.18,344.3,493.73Z" transform="translate(-152.43 -182.35)"/><path class="cls-2" d="M213,495.69l2,3.18c.6,1,0,.95-.69.84C214,498.33,211.68,497.6,213,495.69Z" transform="translate(-152.43 -182.35)"/><path class="cls-2" d="M334.32,499.72c-.08-1.84,1.4-2.23,2.64-2.84C337.79,499.42,335.76,499.3,334.32,499.72Z" transform="translate(-152.43 -182.35)"/><path class="cls-2" d="M319.29,508.74c0-1.9,1.48-2.3,2.79-2.91C322.65,508.24,320.87,508.4,319.29,508.74Z" transform="translate(-152.43 -182.35)"/><path class="cls-2" d="M416.18,378a1.33,1.33,0,0,0,.9-.08c-.08,1.65-.17,3.3-.25,4.95l-.88.05C416,381.27,416.1,379.63,416.18,378Z" transform="translate(-152.43 -182.35)"/><path class="cls-2" d="M158,398.82c1.29.86,1.57,2.29,2.07,3.61C158.94,401.49,157,401,158,398.82Z" transform="translate(-152.43 -182.35)"/><path class="cls-2" d="M173.44,426.91l.15.19.24-.09c1.24.49,1.49,1.66,1.89,2.74l-.33-.17-.28.25A3.21,3.21,0,0,1,173.44,426.91Z" transform="translate(-152.43 -182.35)"/><path class="cls-2" d="M423.1,209a7.93,7.93,0,0,0,1-.08c-.07,1.63-.15,3.27-.22,4.9l-1-1C423,211.59,423,210.31,423.1,209Z" transform="translate(-152.43 -182.35)"/><path class="cls-2" d="M414.83,399.81a7.77,7.77,0,0,0-1,.08l.24-4.91,1.08-.07C415.06,396.54,415,398.18,414.83,399.81Z" transform="translate(-152.43 -182.35)"/><path class="cls-2" d="M424.82,205.86l-1-1,.33-3.86h.79Z" transform="translate(-152.43 -182.35)"/><path class="cls-2" d="M214.33,499.71l.69-.84c1.23.6,1.33,2,2,3C214.76,502.83,214.8,501,214.33,499.71Z" transform="translate(-152.43 -182.35)"/><path class="cls-2" d="M224.81,516l-1.35-.15c-1.42-.86-.89-1.78-.08-2.71Z" transform="translate(-152.43 -182.35)"/><path class="cls-1" d="M372.89,216.92c-2.53-.26-5,1.46-7.57,0-2.16-.12-4.43.4-6.39-1a5.83,5.83,0,0,0-3.78,1,22.47,22.47,0,0,0-5.14.93c-1.73.59-3.58.77-5.28,1.49-1.71,0-3.23.88-4.9,1.07a39.06,39.06,0,0,1-7.87,1.5l-1,0c-1.67,1.25-3.43,2-5.5,1l-7.37-3c-2-1.15-4.35-1.3-6.29-2.54-2-2.89,1.79-2.13,2.23-3.48l2.93-1c1.94,0,3.85-.08,5.06-2,1.5-4.43-4.49,1.23-2.92-3a22,22,0,0,0,7.79-1.57c2-.79,1.28,1.43,2.26,1.6,1.41.9,2.62,1.26,2.87-1,1.23-4.15,3.68-5.07,7.28-2.68,1.07.71,1.8-.05,2.66-.32a7.15,7.15,0,0,0,5.07-2l2.69-1c1.88-.29,4,.15,5.22-2l3.18-.07c1.32-1.39,3.19-1.59,4.84-2.28a16,16,0,0,0,4.95-1.64c4.64.16,6.89,4.09,10.05,6.51,4.17,3.19,8,6.8,12,10.24a44.38,44.38,0,0,1,4.49,4.29l.29-.15c1.34,1.86,1.19,3.16-1.35,3.54-2.5-.28-5.07-.17-7.36-1.47l-7.27.88C377.09,217.24,374.52,218.52,372.89,216.92Z" transform="translate(-152.43 -182.35)"/><path class="cls-1" d="M316.55,273.94c4.27-5.13,10.66-7.83,14.89-13,1.8.05,3.24-1.11,4.93-1.45,1.69.1,3-1,4.51-1.44a16,16,0,0,1,4.21-.11l1.89-1c2.88.94,5.25-2.34,8.17-1,3.34-2,6.22-1.35,9.36.86,3.7,2.59,7.17,5.65,11.57,7.15.43,1.25,2.07,2.22.93,3.85l-.09,3.22c-1.45.74-2,2.29-3,3.43a8.91,8.91,0,0,1,.08.89,18.05,18.05,0,0,0-2.55,3.8c-.7,1.37-.91,3.08-2.6,3.75l-.78,0c-1.81.56-3.38-.32-4.67-.46,1.05.84,3.12.22,4.53,1.4.08,3-4.22,2.25-4.44,5-1.92-.15-4.19-.4-2.69-3.07,1.35-2.4-.54-2.83-1.61-3.89-1.71.22-3.42-.44-5.13,0l-3,.05c-1.34-1.51-3.49-1-5-2h-2.76c-1.82-.05-3.7.22-5.3-1l-3.87,1c-1.06-1.31-3-.94-4.13-2L326.13,279c-1.08-1.31-3-1-4.17-2.05l-3,1c-.86-.76-2.12-.7-3-1.32C314.13,275.33,314.44,274.37,316.55,273.94Z" transform="translate(-152.43 -182.35)"/><path class="cls-1" d="M175,228c-.33-.52-.66-1-1-1.56.06-1.16-.79-2.11-.73-3.27L168,216.4c0-1.17-.77-2.15-.78-3.31-2.11-1.24-1.91-4.44-4.48-5.29-.51-2.5,1-2.58,2.81-2.37,1.73-.12,3.43.36,5.15.4,1.71-.17,3.35,1.62,5.12.2,2.39-3.66,2.32.21,3.24,1.06,2.27,1.18,4.76.61,7.15.89,1.66.47,3.3,1.1,5.08.8,4.27.31,8.22,2.34,12.56,2.23l3.21,0c3.5,2.11,7.59.91,11.28,2,.87,3,1.77,6,.61,9.14l1,3c-1.81.63-3.68.16-5.5.33-1.52.2-2.95,1.12-4.55.47l-2.31,1.13c-1.59-.07-3.19-.15-4.78-.1l-2.59,1c-1.92-.21-3.74.6-5.65.48C188.05,228.16,181.52,229,175,228Z" transform="translate(-152.43 -182.35)"/><path class="cls-1" d="M238.47,426.82c1.44-1.49,2.49-3.46,4.73-4,.94-2.33,2.71-.88,4.15-.91l6,3.15c1,1.09,2.8,1.25,3.48,2.77l1.17.08c6.65,1.13,13.35.21,20,.51,2.82.85,5.79,1.05,8.59,2,2-.26,3.66,1.36,5.67,1.06,1.9.17,3.72,1.94,5.73.31,2-1.29,3.44.27,5,1.12.52,2.49,3,.89,4.21,2.05.1,1.69-1.14,1.82-2.34,2l-4.65,1c-3.41.32-6.81.81-10.24,1l-2.87,1c-1.86-.65-3.41.34-5,.95l-1.71,0c-4.46-.49-9.08,1-13.43-1a7.08,7.08,0,0,1-4.57,0,10.27,10.27,0,0,1-3.61-.49c-1.48-.08-2.95,0-4.43-.08-1.18-.4-2.43-.52-3.61-.92-1.52-.09-3,.06-4.56-.12-1.67-.62-3.64-.15-5.15-1.4l-2.92,1c-1.36-1.34-3.23-1.07-4.87-1.54-1.32-.73-3.85,1.61-4.17-1.65-1.15-1.64-.25-3.65-.09-5.11.45-4.21,3.06-1.12,4.84-.73C236,429.72,236.7,427,238.47,426.82Z" transform="translate(-152.43 -182.35)"/><path class="cls-1" d="M168,274.11c2.86-2,.2-6.69,4.05-8.17,2,.73,2.07-1.72,3.44-2,2.08-1.45,4.44-1,6.72-1,1.87-2,3.7-4.19,6.85-2.17a3,3,0,0,1-2.31,1.47c1.5-.15,2.89-1,4.46-.79s3.34-.92,4.32,1.17a2.82,2.82,0,0,1-.1,1.32c-.82,1.2-2,2.21-2,3.86a11,11,0,0,1-2.07,4c-3,3.52-2.8,6.85.22,10.19a2.56,2.56,0,0,1-.27,2.07,1.73,1.73,0,0,1-1.33.41c-1.73.09-3.25-.8-4.92-1-2-.78-4.15-1-5.86-2.43l-1-.05c-1.29-.81-3.25.19-4.19-1.55l-1.85-.47a6.69,6.69,0,0,1-5.11-1.65C166.19,275.87,167.49,275.11,168,274.11Z" transform="translate(-152.43 -182.35)"/><path class="cls-1" d="M191,282.32c-4-3-4.68-6.3-1.15-10.25a33.38,33.38,0,0,0,3.14-4.94,4.43,4.43,0,0,1,2.06-3.24L195,264c.67-1.22.85-2.89,2.78-2.89a6,6,0,0,1,2.16,0c1.14.32,2.31.51,3.48.73a7.41,7.41,0,0,1,4.56,2l1.15.07a43.18,43.18,0,0,1-.23,12.33c-.89,2.28-3.14,2.56-5,3.39a28.48,28.48,0,0,1-3.31,1.43c-1.7.64-3.55.84-5.19,1.68S192.33,283.91,191,282.32Z" transform="translate(-152.43 -182.35)"/><path class="cls-1" d="M199.92,280l2.82-1.06c2.29-.56,5.48.41,5.8-3.46,0-2.3.08-4.6,0-6.89-.15-3.42,1.38-3.08,3.48-1.68l7,10a8.2,8.2,0,0,1,0,5.95l-.81,1.07c-1.54-.12-3,.65-4.53.51-1.3.39-2.67.46-3.95.91a61.54,61.54,0,0,0-6.71,1.55h0a10.19,10.19,0,0,1-4.26,0q-.33,0-.66,0a11.17,11.17,0,0,1-3.51-.78c-1.06-1-3.65.35-3.6-2.34,0-.5,0-1,0-1.49,1.24.09,2.54.83,3.62-.4C196.55,281.65,198.72,282.11,199.92,280Z" transform="translate(-152.43 -182.35)"/><path class="cls-2" d="M264,387.75a32.56,32.56,0,0,0-5.43.27c-10.05,2.17-14.27-5.42-19.37-11.7,6.16,8.66,14.35,12.37,24.81,10.6.35.19.46.38.34.56S264.11,387.75,264,387.75Z" transform="translate(-152.43 -182.35)"/><path class="cls-2" d="M278.27,277.05V306.6h-.7V277.06Z" transform="translate(-152.43 -182.35)"/><path class="cls-2" d="M266.94,439.86c4.46.66,9.1-1.24,13.43,1C275.8,441.82,271.14,443.88,266.94,439.86Z" transform="translate(-152.43 -182.35)"/><path class="cls-2" d="M279,428.84c-6.06,0-12.11.07-18.16,0-1,0-2.37.72-2.85-1l20.93.2c.26.14.36.3.3.47S279.09,428.84,279,428.84Z" transform="translate(-152.43 -182.35)"/><path class="cls-2" d="M175,228l21,.07c.36.18.48.35.35.51a.51.51,0,0,1-.39.22l-19.06.19C176.1,229,175.22,229.1,175,228Z" transform="translate(-152.43 -182.35)"/><path class="cls-2" d="M232.08,349.92l-.18,20.94c-.26.51-.53.51-.82,0l.09-20.89C231.44,349.54,231.74,349.49,232.08,349.92Z" transform="translate(-152.43 -182.35)"/><path class="cls-2" d="M304.87,436.89c.32-1.09,2.07-.66,2.13-2-.34-.16-.46-.33-.35-.5s.23-.25.34-.25c1.89,1,5.86-.22,5.63,2.19-.3,3.34-3.73-.45-5.57.92A1.54,1.54,0,0,1,304.87,436.89Z" transform="translate(-152.43 -182.35)"/><path class="cls-2" d="M189,207.92c3.64-2.33,7.17.91,10.85.33.63-.1-.79.87-.87,1.54-2.54,2-4.86-.78-7.33-.35-1-.1-2.09.32-2.8-.76Z" transform="translate(-152.43 -182.35)"/><path class="cls-2" d="M212,266.89c-1.46.06-3.12-.51-2.83,2.21a57,57,0,0,1-.2,7.83c-.33.43-.66.4-1,0,.56-4.29-1.13-8.79,1.15-12.93A4.53,4.53,0,0,1,212,266.89Z" transform="translate(-152.43 -182.35)"/><path class="cls-2" d="M218,213c-3.65-.55-7.75,1.36-10.87-2l12,.77C219.55,212.92,219,213.16,218,213Z" transform="translate(-152.43 -182.35)"/><path class="cls-2" d="M248,294.32l1.38-11A14.46,14.46,0,0,1,248,294.32Z" transform="translate(-152.43 -182.35)"/><path class="cls-2" d="M191.07,209.14l8,.65,4.86,1.22c-4.41,1.08-8.59-.35-12.81-1.22Z" transform="translate(-152.43 -182.35)"/><path class="cls-2" d="M218,213l1.16-1.23c.78,3.46,1.94,6.92-.14,10.35Z" transform="translate(-152.43 -182.35)"/><path class="cls-2" d="M251.56,460.88l10,1.51C258.14,463.05,254.78,463,251.56,460.88Z" transform="translate(-152.43 -182.35)"/><path class="cls-2" d="M316.55,273.94c.1.73-2.86,1.29-.14,2.16,1,.34,2.4.19,2.5,1.8a15,15,0,0,1-3.38-.45c-.93-.35-2.91.06-2.55-1.48C313.29,274.63,314.17,272.48,316.55,273.94Z" transform="translate(-152.43 -182.35)"/><path class="cls-2" d="M290,438.88c3.35-1,6.69-2.09,10.24-1C296.89,439.07,293.55,440.16,290,438.88Z" transform="translate(-152.43 -182.35)"/><path class="cls-2" d="M208,263.92c-1.8.36-3.33-.54-4.94-1-.61-1.24-.76-2.22,1.15-2.07C206.42,260.66,208.65,260.53,208,263.92Z" transform="translate(-152.43 -182.35)"/><path class="cls-2" d="M181.82,207c2.48-.33,5.38-4.06,7.22.88l-.13.19c-.95.83-2,.35-3.09.34C184.48,208,182.45,209.53,181.82,207Z" transform="translate(-152.43 -182.35)"/><path class="cls-2" d="M279,428.84a.7.7,0,0,1-.08-.75c2.76.41,5.56.62,8.1,1.94v.69C284.22,430.69,281.47,430.39,279,428.84Z" transform="translate(-152.43 -182.35)"/><path class="cls-2" d="M198.06,261.71c-1.69-.12-2.13,1.42-3.06,2.3-.1-2.95-2.47-1.77-4-2.18-.34-.17-.45-.34-.34-.51s.23-.25.35-.25l7-.94A1,1,0,0,1,198.06,261.71Z" transform="translate(-152.43 -182.35)"/><path class="cls-2" d="M182.18,262.94c-2.23,1.62-5.12.52-7.43,1.82q-.81.17-.6-.63c.07-1.23,1.21-1,1.9-1.41a17.44,17.44,0,0,1,4-.74C180.82,262.15,181.85,261.77,182.18,262.94Z" transform="translate(-152.43 -182.35)"/><path class="cls-2" d="M386,218l7,1c.31.18.42.37.34.57s-.18.32-.28.32C390.59,219.54,387.67,221.11,386,218Z" transform="translate(-152.43 -182.35)"/><path class="cls-2" d="M332,221.94a19.83,19.83,0,0,1,8-2c.33.2.44.41.33.62s-.22.31-.33.31C337.39,221.76,334.84,223.14,332,221.94Z" transform="translate(-152.43 -182.35)"/><path class="cls-2" d="M231.08,370.88a1.52,1.52,0,0,0,.82,0c-.11,2.49-.34,4.95-1.94,7l-.69.07C229.68,375.55,229.66,373,231.08,370.88Z" transform="translate(-152.43 -182.35)"/><path class="cls-2" d="M358.93,215.93c2.16.14,4.4-.21,6.39,1C362.89,218.51,360.7,218.53,358.93,215.93Z" transform="translate(-152.43 -182.35)"/><path class="cls-2" d="M351,255.64c-.9-1.35-.53-2.77.78-3.18,1.65-.53,2,1,2.22,2.35C353.21,255.91,352.51,257.25,351,255.64Z" transform="translate(-152.43 -182.35)"/><path class="cls-2" d="M166,205.87c-1.43.07-3.09-.26-3.27,1.93-.64-1.16-2.53-2.39-1.25-3.57s3,0,4.51.7c.32.21.43.41.33.62S166.15,205.87,166,205.87Z" transform="translate(-152.43 -182.35)"/><path class="cls-2" d="M351,255.64l3-.83,1.16,1.17c-2.66.78-5.21,2.62-8.17,1Z" transform="translate(-152.43 -182.35)"/><path class="cls-2" d="M372.89,216.92c1.95.62,4.79-1.45,5.84,1.92C376.74,218.33,373.9,220.4,372.89,216.92Z" transform="translate(-152.43 -182.35)"/><path class="cls-2" d="M298,431.72l1.91,1.23c-2.4-.22-4.89.68-6.93-1-.33-.2-.44-.41-.34-.62s.22-.32.33-.32Z" transform="translate(-152.43 -182.35)"/><path class="cls-2" d="M294,361.8c-2.28-.72-4.94-.31-7.35-2.69,2.95.22,5.27.43,7.4,1.63q.48.38.3.72C294.24,361.68,294.12,361.8,294,361.8Z" transform="translate(-152.43 -182.35)"/><path class="cls-2" d="M204.19,260.81a1.76,1.76,0,0,0-1.15,2.07A3.13,3.13,0,0,1,200,262a10,10,0,0,1,0-2.19C201.8,258.2,202.81,260.29,204.19,260.81Z" transform="translate(-152.43 -182.35)"/><path class="cls-2" d="M277.26,356.52l7.76,1.91-.32,1.3C282.56,358.74,280,359.58,277.26,356.52Z" transform="translate(-152.43 -182.35)"/><path class="cls-2" d="M203,286.91c1.91-2,4.48-1.79,6.89-2.1,1-.38,1.23.08,1,1Z" transform="translate(-152.43 -182.35)"/><path class="cls-2" d="M245.77,312.11a5.18,5.18,0,0,1-1.39,6.58Z" transform="translate(-152.43 -182.35)"/><path class="cls-2" d="M363,197a6.68,6.68,0,0,1-4.91,1.88c.85-2.35,2.81-2.68,4.94-2.72q.47.3.3.57T363,197Z" transform="translate(-152.43 -182.35)"/><path class="cls-2" d="M368,283.85a10.89,10.89,0,0,1-6.47-1.65,12.8,12.8,0,0,1,6.61.71C368,283.22,368,283.53,368,283.85Z" transform="translate(-152.43 -182.35)"/><path class="cls-2" d="M314,214c.63,1.88-2.46,1.36-2,3.12.29.2.39.4.29.6s-.2.29-.3.29c-1.15.07-2.5,0-2.8-1.22-.33-1.42,1.07-1.63,2.11-1.94S313.1,214.23,314,214Z" transform="translate(-152.43 -182.35)"/><path class="cls-2" d="M229.05,434.72c1.2,2,3.32.65,4.89,1.32.27.17.37.35.3.55s-.14.3-.23.3c-1.9-.07-3.8-.12-5.7-.23-.69,0-1.32-.42-.84-1.15C227.75,435.08,228.51,435,229.05,434.72Z" transform="translate(-152.43 -182.35)"/><path class="cls-2" d="M273,464.92a12.88,12.88,0,0,1-8.72-2l8.69,1.19c.23.18.32.36.25.56S273.07,464.92,273,464.92Z" transform="translate(-152.43 -182.35)"/><path class="cls-2" d="M345,218.82c1.37-1.57,3.46-.9,5.1-1.63.44.23,1,.28,1.17.92-1.92,1.21-4.17,1.22-6.28,1.73-.32-.23-.43-.46-.32-.68S344.85,218.82,345,218.82Z" transform="translate(-152.43 -182.35)"/><path class="cls-2" d="M276,383.92l6.67-2c-1.72,2.51-4.32,2.34-6.68,2.85-.32-.19-.42-.39-.31-.58S275.89,383.92,276,383.92Z" transform="translate(-152.43 -182.35)"/><path class="cls-2" d="M202.8,227c1.61-.91,3.23-2,4.78.1C206,228.16,204.35,228.91,202.8,227Z" transform="translate(-152.43 -182.35)"/><path class="cls-2" d="M285.14,332.69l1.79,6.23c-.34.48-.7.5-1.08.05-1.39-1.43-1-3.43-1.68-5.1C284.46,333.45,284.52,332.84,285.14,332.69Z" transform="translate(-152.43 -182.35)"/><path class="cls-2" d="M187,189.12l1,2.84c-2.07.48-3-1.34-4.42-2.18C184.62,188.85,185.84,189.05,187,189.12Z" transform="translate(-152.43 -182.35)"/><path class="cls-2" d="M280.78,320.35c3,2.06,2.13,4.39,2.57,6.29C281.33,325.24,281.74,323.07,280.78,320.35Z" transform="translate(-152.43 -182.35)"/><path class="cls-2" d="M247.4,303.32c1,2.72-.22,4.38-.75,6.16C245.81,307.49,246.18,305.69,247.4,303.32Z" transform="translate(-152.43 -182.35)"/><path class="cls-2" d="M338,278.92c1.83,0,3.72-.29,5.3,1C341.11,281.62,339.33,281.32,338,278.92Z" transform="translate(-152.43 -182.35)"/><path class="cls-2" d="M347,202c-.78,3-2.77,2.87-5.07,2C343.39,202.7,345.21,202.37,347,202Z" transform="translate(-152.43 -182.35)"/><path class="cls-2" d="M280.1,312.75l2,6.73c-3-1.79-2.08-4.07-2.88-5.62A1.65,1.65,0,0,1,280.1,312.75Z" transform="translate(-152.43 -182.35)"/><path class="cls-2" d="M354.08,281.9c1.72-1.95,3.42-.86,5.13,0C357.49,283.61,355.79,282.58,354.08,281.9Z" transform="translate(-152.43 -182.35)"/><path class="cls-2" d="M234,436.89a2,2,0,0,1-.07-.85c1.67,0,3.66-.74,4.15,1.87C236.64,437.92,235.15,438.14,234,436.89Z" transform="translate(-152.43 -182.35)"/><path class="cls-2" d="M241,436.88c1.77-.11,3.54-.21,5.08.93a1.68,1.68,0,0,1-1,.89C243.52,438.58,241.67,439.07,241,436.88Z" transform="translate(-152.43 -182.35)"/><path class="cls-2" d="M239,458.89l7,1.06a.65.65,0,0,1,.27.71c-.07.25-.15.38-.23.38-2.4-.14-4.85.07-7-1.33-.28-.19-.38-.37-.28-.55S238.91,458.89,239,458.89Z" transform="translate(-152.43 -182.35)"/><path class="cls-2" d="M273,464.92a2,2,0,0,1,0-.84c1.88.16,3.82.12,5.7,1.38C276.5,466.25,274.68,466.28,273,464.92Z" transform="translate(-152.43 -182.35)"/><path class="cls-2" d="M354.91,199c-.9,2.86-2.69,3.39-5.22,2Z" transform="translate(-152.43 -182.35)"/><path class="cls-2" d="M181.82,207c1.21,1.1,2.8.63,4.18,1,.35.18.48.38.37.58s-.22.31-.34.31c-2.46-.09-5.07.4-6.94-1.88Z" transform="translate(-152.43 -182.35)"/><path class="cls-2" d="M312,218c0-.29,0-.59,0-.89,2.05.89,4.6.76,6.06,2.9C315.68,220.37,313.79,219.3,312,218Z" transform="translate(-152.43 -182.35)"/><path class="cls-2" d="M191.05,261.07a6.4,6.4,0,0,0,0,.76c-1.89.43-3.7,1.52-5.85.8.83-1.68,2.6-1.22,3.84-1.86Z" transform="translate(-152.43 -182.35)"/><path class="cls-2" d="M346,279.94c1.78.42,4.41-1.31,5,2C349.16,281.81,347.09,282.11,346,279.94Z" transform="translate(-152.43 -182.35)"/><path class="cls-2" d="M179.17,281c2.06.42,4.19.63,5.83,2.16v.49C183,283,180.23,283.82,179.17,281Z" transform="translate(-152.43 -182.35)"/><path class="cls-2" d="M237.12,337.94l-1.83,5.82c-1.28-3.15.16-4.4.87-5.84C236.49,337.53,236.81,337.54,237.12,337.94Z" transform="translate(-152.43 -182.35)"/><path class="cls-2" d="M306.37,376.66c.47-1.68,0-3.66,2.59-5.55C308,373.73,308.69,375.76,306.37,376.66Z" transform="translate(-152.43 -182.35)"/><path class="cls-2" d="M229.27,378a.74.74,0,0,0,.69-.07c1.71,2.37-.79,4-1.07,6-.28.48-.56.46-.85,0C227.58,381.74,229,380,229.27,378Z" transform="translate(-152.43 -182.35)"/><path class="cls-2" d="M306.46,377.47c-.12,2.92,0,4.73-2.54,6.88C304.41,381.67,304.61,379.93,306.46,377.47Z" transform="translate(-152.43 -182.35)"/><path class="cls-2" d="M264,387.75c0-.28,0-.55,0-.83,1.76-1.45,4-1.2,6-1.77q.48.27.3.51a.45.45,0,0,1-.34.23C268.31,387.51,266,387.25,264,387.75Z" transform="translate(-152.43 -182.35)"/><path class="cls-2" d="M238.47,426.82a28.13,28.13,0,0,1-3.43,3.31c-1.85,1.26-.88-.75-1.24-1.25C235,427.35,236.75,427.15,238.47,426.82Z" transform="translate(-152.43 -182.35)"/><path class="cls-2" d="M336,260.08c-1.39,1-2.83,1.76-4.58.86,1.1-1.69,2.92-1.61,4.6-1.85.31.22.41.45.3.67S336.13,260.08,336,260.08Z" transform="translate(-152.43 -182.35)"/><path class="cls-2" d="M238.31,377.46l-5,2.49a6.39,6.39,0,0,1,4.35-3.59Z" transform="translate(-152.43 -182.35)"/><path class="cls-2" d="M196,228.76a1,1,0,0,1,0-.73c1.39-.68,2.78-1.91,4.22-.08A5.28,5.28,0,0,1,196,228.76Z" transform="translate(-152.43 -182.35)"/><path class="cls-2" d="M345,218.82v1c-1.69.16-3.13,1.49-4.95,1.07a2.09,2.09,0,0,1,0-.93A8.78,8.78,0,0,1,345,218.82Z" transform="translate(-152.43 -182.35)"/><path class="cls-2" d="M175.85,206c0,.53,2.25,1.37-.08,1.5a21.24,21.24,0,0,1-4.73-.78.83.83,0,0,1,.12-1.13,1.84,1.84,0,0,1,1.87.1Z" transform="translate(-152.43 -182.35)"/><path class="cls-2" d="M248,296.61c1.58,1,.91,2.13.65,3.11-.2.82-.83.27-1.06,0C246.63,298.77,247,297.8,248,296.61Z" transform="translate(-152.43 -182.35)"/><path class="cls-2" d="M332,207c1.51.82.89,1.69-.21,1.9s-2.14,1.69-3.33.37c-.1-.12.43-.81.67-1.23C330.14,207.85,331.27,208,332,207Z" transform="translate(-152.43 -182.35)"/><path class="cls-2" d="M368.87,282.93c.8-1.31,1.61-2.61,2.42-3.92a.59.59,0,0,1,1-.06C371.26,280.37,371.94,283.27,368.87,282.93Z" transform="translate(-152.43 -182.35)"/><path class="cls-2" d="M394.41,216c-2-.95-3.72-2.1-4.49-4.29C392.22,212.34,394,213.52,394.41,216Z" transform="translate(-152.43 -182.35)"/><path class="cls-2" d="M185,283.63a.69.69,0,0,1,0-.49c1.85-.74,3.31.73,5,.91a1,1,0,0,1-.05,1.44C188.22,285.09,186.44,284.8,185,283.63Z" transform="translate(-152.43 -182.35)"/><path class="cls-2" d="M209.89,225.92c1.36-.57,2.69-1.28,4.24-.79q.39.36.21.66c-.11.19-.21.28-.31.28C212.6,227.33,211.2,227.76,209.89,225.92Z" transform="translate(-152.43 -182.35)"/><path class="cls-2" d="M282.08,440.86c1.42-1.67,3-2.48,5-.95A9.69,9.69,0,0,1,282.08,440.86Z" transform="translate(-152.43 -182.35)"/><path class="cls-2" d="M307,434.12c0,.25,0,.5,0,.75-1.84.36-3.81.2-5.06-1s.74-.58,1.06-1C304,434.22,305.7,433.57,307,434.12Z" transform="translate(-152.43 -182.35)"/><path class="cls-2" d="M285.14,332.69l-1,1.18c-.35-1.51-.7-3-1.21-5.16C285.3,329.69,285.08,331.27,285.14,332.69Z" transform="translate(-152.43 -182.35)"/><path class="cls-2" d="M237.12,337.94l-1,0c.32-1.33.39-2.8,2-3.78A3,3,0,0,1,237.12,337.94Z" transform="translate(-152.43 -182.35)"/><path class="cls-2" d="M270,385.89a1.43,1.43,0,0,0,0-.74l6-1.23c0,.29,0,.57,0,.86C274,385.12,272.16,386.42,270,385.89Z" transform="translate(-152.43 -182.35)"/><path class="cls-2" d="M322,276.92c1.52.43,4.07-1.26,4.17,2.05C324.5,278.77,322.47,279.39,322,276.92Z" transform="translate(-152.43 -182.35)"/><path class="cls-2" d="M167.06,276.87l5.08,2c-2,1.41-3.56.21-5.13-.9a.71.71,0,0,1-.23-.77C166.88,277,167,276.87,167.06,276.87Z" transform="translate(-152.43 -182.35)"/><path class="cls-2" d="M351.23,218.11l-1.17-.92c1.71.21,3.31-2,5.09-.24C354.1,218.21,352.64,218.09,351.23,218.11Z" transform="translate(-152.43 -182.35)"/><path class="cls-2" d="M293,431c0,.32,0,.63,0,.94-2.13.31-4-.6-5.94-1.25a5.3,5.3,0,0,0,0-.69Z" transform="translate(-152.43 -182.35)"/><path class="cls-2" d="M180,262c-1.18,1-2.61.76-4,.74C177.39,262.5,178.11,259,180,262Z" transform="translate(-152.43 -182.35)"/><path class="cls-2" d="M247.35,421.89c-1.08,1.68-3.1-.9-4.15.91C243.74,419.7,243.94,419.66,247.35,421.89Z" transform="translate(-152.43 -182.35)"/><path class="cls-2" d="M336,260.08a4.68,4.68,0,0,0,0-1L339,258a1.7,1.7,0,0,1,2-.31.83.83,0,0,1,.26.82c-.07.28-.15.42-.23.42C339.51,260.05,337.75,260,336,260.08Z" transform="translate(-152.43 -182.35)"/><path class="cls-2" d="M190,285.49l.05-1.44,1.05-.24,4.13,2c-.14.6-.75.68-1.13,1Z" transform="translate(-152.43 -182.35)"/><path class="cls-2" d="M322,211c-.82,2.89-2.62,3.26-5.06,2Z" transform="translate(-152.43 -182.35)"/><path class="cls-2" d="M341,258.12l-2-.13c1.57-.9,3-2.75,5-.94C343.68,259.3,342.17,258.24,341,258.12Z" transform="translate(-152.43 -182.35)"/><path class="cls-2" d="M330,277.92c1.48.47,4.11-1.38,4.13,2C332.55,279.62,330.49,280.32,330,277.92Z" transform="translate(-152.43 -182.35)"/><path class="cls-2" d="M232.34,448.36c-1.32-1.53-2.39-2.31-1.27-4.05C232.43,445.26,232.77,446.36,232.34,448.36Z" transform="translate(-152.43 -182.35)"/><path class="cls-2" d="M239,458.89a2.26,2.26,0,0,0,0,.82,4.68,4.68,0,0,1-2.53-4.89l.06.06C237.36,456.21,238.18,457.55,239,458.89Z" transform="translate(-152.43 -182.35)"/><path class="cls-2" d="M167.06,276.87c0,.38,0,.76-.05,1.14-.6-.13-1.71-.22-1.72-.4-.15-1.9,1.49-2.54,2.68-3.5Z" transform="translate(-152.43 -182.35)"/><path class="cls-2" d="M280.1,312.75l-.83,1.11c-.38-1.5-.76-3-1.31-5.23C280.14,309.82,280.13,311.28,280.1,312.75Z" transform="translate(-152.43 -182.35)"/><path class="cls-2" d="M245.33,270.64c-1.63-.94-1.68-2.2-2-4C245.71,267.83,245,269.49,245.33,270.64Z" transform="translate(-152.43 -182.35)"/><path class="cls-2" d="M377,267.84c.57-1.5-1.89-2.26-.93-3.85a4.17,4.17,0,0,1,2.55,3.46A14.88,14.88,0,0,1,377,267.84Z" transform="translate(-152.43 -182.35)"/><path class="cls-2" d="M239,331.27c.63-2,.7-3.42,2.52-4C241.1,328.54,241.54,330.13,239,331.27Z" transform="translate(-152.43 -182.35)"/><path class="cls-2" d="M289.51,263.94c.4-1.75,1-2.93,3-3C292,262.57,291.41,263.83,289.51,263.94Z" transform="translate(-152.43 -182.35)"/><path class="cls-2" d="M285.85,339l1.08-.05c.32,1.34.63,2.68.94,4-.33.46-.65.46-1,0C285.56,341.87,285.89,340.37,285.85,339Z" transform="translate(-152.43 -182.35)"/><path class="cls-2" d="M286.9,342.94h1c0,1.56,1.33,3,.65,4.8C286.58,346.48,287.06,344.6,286.9,342.94Z" transform="translate(-152.43 -182.35)"/><path class="cls-2" d="M232.08,349.92l-.45.09-.46,0c.2-1.37.42-2.71,1.94-3.7A2.73,2.73,0,0,1,232.08,349.92Z" transform="translate(-152.43 -182.35)"/><path class="cls-2" d="M199.92,259.82c1,.71.9,1.44,0,2.19l-1.9-.3c0-.52,0-1,0-1.58Z" transform="translate(-152.43 -182.35)"/><path class="cls-2" d="M289.51,350a7.61,7.61,0,0,1,.45,2.18,1.07,1.07,0,0,1-1.42.86c-.27-.08-.54-.9-.42-1.25C288.3,351.27,288.82,350.86,289.51,350Z" transform="translate(-152.43 -182.35)"/><path class="cls-2" d="M219,282.87c0-2,0-4,0-5.95A4.31,4.31,0,0,1,219,282.87Z" transform="translate(-152.43 -182.35)"/><path class="cls-2" d="M325.43,222.93l5.5-1C329.48,224.48,327.66,224.87,325.43,222.93Z" transform="translate(-152.43 -182.35)"/><path class="cls-2" d="M256.83,427.81c-1.17-.9-2.95-1.06-3.48-2.77C254.73,425.68,257,425.19,256.83,427.81Z" transform="translate(-152.43 -182.35)"/><path class="cls-2" d="M214,283.91c1.41.26,2.83-2,4.22,0-1.16,1.36-2.75,1-4.24,1.09-.32-.26-.42-.51-.31-.76S213.9,283.91,214,283.91Z" transform="translate(-152.43 -182.35)"/><path class="cls-2" d="M393,219.82l-.06-.89c2.82.27,1.77-1.68,1.73-3,2.34.38,1.32,2.26,1.12,3.26C395.53,220.6,394,219.81,393,219.82Z" transform="translate(-152.43 -182.35)"/><path class="cls-2" d="M214,226.07a1,1,0,0,0,.1-.94h5.81C218.15,226.57,216,225.81,214,226.07Z" transform="translate(-152.43 -182.35)"/><path class="cls-2" d="M214,283.91c0,.37,0,.74,0,1.12a4.45,4.45,0,0,1-3.07.76l-1-1A4.73,4.73,0,0,1,214,283.91Z" transform="translate(-152.43 -182.35)"/><path class="cls-2" d="M245.11,438.7l1-.89,4.84.21c.26.21.37.42.3.65s-.14.36-.22.36Z" transform="translate(-152.43 -182.35)"/><path class="cls-2" d="M251,439c0-.34-.06-.67-.08-1,1.13-.18,2.26-.4,3.09.71.32.21.44.43.35.67s-.18.36-.28.36C253,440,251.82,440.17,251,439Z" transform="translate(-152.43 -182.35)"/><path class="cls-2" d="M258.94,439c1.26-.15,2.56-.47,3.43.88-1.09,1.44-2.22,1.11-3.37.06-.33-.19-.44-.39-.35-.6S258.84,439,258.94,439Z" transform="translate(-152.43 -182.35)"/><path class="cls-2" d="M308.37,441c-.38,1.52-1.16,2.68-3.59,3.68C305.82,442.37,306.73,441.36,308.37,441Z" transform="translate(-152.43 -182.35)"/><path class="cls-2" d="M363,197a1.11,1.11,0,0,0,0-.84c1.6-.46,3.05-1.54,4.85-1.2A6.18,6.18,0,0,1,363,197Z" transform="translate(-152.43 -182.35)"/><path class="cls-2" d="M249.19,279.17c-2.73-1-2.23-2.64-3.52-4.82C248.46,275.82,248.2,277.37,249.19,279.17Z" transform="translate(-152.43 -182.35)"/><path class="cls-2" d="M194.05,286.85l1.13-1a3.69,3.69,0,0,1,3,1.1C196.75,289,195.43,286.49,194.05,286.85Z" transform="translate(-152.43 -182.35)"/><path class="cls-2" d="M246,461l0-1.09c1.13-.07,2.37-.45,3,.95.08.19-.14.75-.3.79A2.26,2.26,0,0,1,246,461Z" transform="translate(-152.43 -182.35)"/><path class="cls-2" d="M171,206a6.94,6.94,0,0,1,0,.79l-5-.88a3.69,3.69,0,0,1,0-.94l4,.08A1.77,1.77,0,0,1,171,206Z" transform="translate(-152.43 -182.35)"/><path class="cls-2" d="M171,206l-1-1c1.44-1.58,2.45-1.39,3,.71Z" transform="translate(-152.43 -182.35)"/><path class="cls-2" d="M198.82,286.9c1.42-1.14,2.84-.92,4.26,0C201.66,288,200.23,289,198.82,286.9Z" transform="translate(-152.43 -182.35)"/><path class="cls-2" d="M285.3,269.74c-1.42,1.71-1.84,3.26-3.91,3.18C282,271.38,282.59,270.21,285.3,269.74Z" transform="translate(-152.43 -182.35)"/><path class="cls-2" d="M294,361.8l.05-1.06c1.41.05,3-.3,4,1.49C296.55,362.91,295.31,361.78,294,361.8Z" transform="translate(-152.43 -182.35)"/><path class="cls-2" d="M341,258.12c.95-.53,2.29.06,3-1.07l1.07.89c-1.15,1.24-2.62,1.13-4.1,1C341,258.65,341,258.39,341,258.12Z" transform="translate(-152.43 -182.35)"/><path class="cls-2" d="M173.3,223.13c.59,1,2.18,1.8.73,3.27C172.45,225.61,172.08,224.55,173.3,223.13Z" transform="translate(-152.43 -182.35)"/><path class="cls-2" d="M174,279.38c1.33.7,3.16,0,4.19,1.55C176.43,281.36,174.62,282,174,279.38Z" transform="translate(-152.43 -182.35)"/><path class="cls-2" d="M305.14,384.14l-1.44,4.36C302.27,386.81,302.77,385.82,305.14,384.14Z" transform="translate(-152.43 -182.35)"/><path class="cls-2" d="M174.15,264.13a4.47,4.47,0,0,1,.6.63c-1.16,2.77-1.35,2.86-2.73,1.18Z" transform="translate(-152.43 -182.35)"/><path class="cls-2" d="M373.94,274.49c.56-1.52,0-4,3-3.43C376.09,272.34,375.76,274.06,373.94,274.49Z" transform="translate(-152.43 -182.35)"/><path class="cls-2" d="M167.25,213.09c.59,1,2.36,1.77.78,3.31C166.39,215.62,166.33,214.47,167.25,213.09Z" transform="translate(-152.43 -182.35)"/><path class="cls-2" d="M228,383.9h.85l-1,3.75C226.3,386.06,227.51,385,228,383.9Z" transform="translate(-152.43 -182.35)"/><path class="cls-2" d="M372.3,279l-1,.06c.37-1.62.89-3.13,2.73-3.63A4.35,4.35,0,0,1,372.3,279Z" transform="translate(-152.43 -182.35)"/><path class="cls-2" d="M236.53,454.88l-.06-.06c-1.66-.18-1.7-1.49-2.1-2.8C236.19,452.38,236.32,453.65,236.53,454.88Z" transform="translate(-152.43 -182.35)"/><path class="cls-2" d="M258.94,439a7.54,7.54,0,0,1,.06.94l-4.91-.19-.07-1Z" transform="translate(-152.43 -182.35)"/><path class="cls-2" d="M367.56,198.35c1.28,0,1,1.14,1.36,1.69.84,1.19-.6,1.17-1.14,1.33-.81.25-2-.21-1.93-.9S367,199,367.56,198.35Z" transform="translate(-152.43 -182.35)"/><path class="cls-1" d="M344,273.77,343,271c-.62-2-2.22-3.88-1.1-6.22a20.87,20.87,0,0,1,4.91-1.33c4.09.29,8.22-.64,12.27.5,1,.56,2.1,1,3.06,1.67,3.11,2.09,4.19,4.61,1,7.48-1.61,1.46-2,3.88-4.17,4.83a14.09,14.09,0,0,0-4.32-2.86c-1.8-.92-3.84-1.18-5.62-2.12l-2.25.05C346.11,274.12,345.39,275.21,344,273.77Z" transform="translate(-152.43 -182.35)"/><path class="cls-2" d="M359.09,264,346,264c-.23-.21-.31-.42-.22-.63s.16-.3.24-.3C350.38,263.31,354.86,261.86,359.09,264Z" transform="translate(-152.43 -182.35)"/><path class="cls-2" d="M344,273.77l2.85-.76c-.34,1.51-.69,3-1.09,4.8C344,276.84,343.27,275.65,344,273.77Z" transform="translate(-152.43 -182.35)"/><path class="cls-2" d="M342,265c.33,2,.65,4,1,6-2-2.16-3.78-4.34-1-7.16C342.53,264.23,342.54,264.62,342,265Z" transform="translate(-152.43 -182.35)"/><path class="cls-2" d="M349.08,273a7.93,7.93,0,0,1,5.91,1.93c.36.19.49.38.38.59s-.22.31-.33.31C353,274.88,350.34,275.43,349.08,273Z" transform="translate(-152.43 -182.35)"/><path class="cls-2" d="M355,275.79a2.11,2.11,0,0,0-.05-.9c1.58.71,4.31-.1,4,3.05C357,278.48,356.69,275.91,355,275.79Z" transform="translate(-152.43 -182.35)"/><path class="cls-2" d="M342,265c0-.4,0-.79,0-1.18a6.81,6.81,0,0,1,4-.77c0,.31,0,.62,0,.93C344.86,265.06,343.41,264.91,342,265Z" transform="translate(-152.43 -182.35)"/><path class="cls-2" d="M326,271.63a4.59,4.59,0,0,1-1.34.74.88.88,0,0,1-1.05-1.11,1.3,1.3,0,0,1,1-.76C324.91,270.52,325.24,271,326,271.63Z" transform="translate(-152.43 -182.35)"/><path class="cls-2" d="M186,209c0-.3,0-.6,0-.89l2.91,0,2.16,1a3.53,3.53,0,0,1,0,.65C189.29,210.1,187.56,210.14,186,209Z" transform="translate(-152.43 -182.35)"/><path class="cls-2" d="M173.47,211.49a7.55,7.55,0,0,1-1.55.87c-.74.22-1.42-.23-1.29-1a2,2,0,0,1,1.32-1.15C172.61,210.08,173.18,210.54,173.47,211.49Z" transform="translate(-152.43 -182.35)"/><path class="cls-2" d="M195.09,263.89,193,267.13C192.33,265.17,193.19,264.2,195.09,263.89Z" transform="translate(-152.43 -182.35)"/><path class="cls-2" d="M208,276.92h1c-1.59,2.19-3.44,3.55-6.23,2Z" transform="translate(-152.43 -182.35)"/><path class="cls-2" d="M199.92,280c-.95,2.82-2.72,3.4-5.26,1.94Z" transform="translate(-152.43 -182.35)"/></svg>